999
dxflib 2.2.0.0
  0
SECTION
  2
HEADER
  9
$ACADVER
  1
AC1015
  9
$HANDSEED
  5
FFFF
  9
$DIMASZ
 40
2.5
  9
$PLIMMIN
 10
0.0
 20
0.0
  9
$DIMEXE
 40
1.25
  9
$DIMGAP
 40
0.625
  9
$PLIMMAX
 10
210.0
 20
297.0
  9
$INSUNITS
 70
4
  9
$DIMEXO
 40
0.625
  9
$DIMTXT
 40
2.5
  9
$CLAYER
  8
cut
  0
ENDSEC
  0
SECTION
  2
TABLES
  0
TABLE
  2
VPORT
  5
8
100
AcDbSymbolTable
 70
1
  0
VPORT
  5
30
100
AcDbSymbolTableRecord
100
AcDbViewportTableRecord
  2
*Active
 70
0
 10
0.0
 20
0.0
 11
1.0
 21
1.0
 12
286.3055555555554861
 22
148.5
 13
0.0
 23
0.0
 14
10.0
 24
10.0
 15
10.0
 25
10.0
 16
0.0
 26
0.0
 36
1.0
 17
0.0
 27
0.0
 37
0.0
 40
297.0
 41
1.92798353909465
 42
50.0
 43
0.0
 44
0.0
 50
0.0
 51
0.0
 71
0
 72
100
 73
1
 74
3
 75
1
 76
1
 77
0
 78
0
281
0
 65
1
110
0.0
120
0.0
130
0.0
111
1.0
121
0.0
131
0.0
112
0.0
122
1.0
132
0.0
 79
0
146
0.0
  0
ENDTAB
  0
TABLE
  2
LTYPE
  5
5
100
AcDbSymbolTable
 70
21
  0
LTYPE
  5
14
100
AcDbSymbolTableRecord
100
AcDbLinetypeTableRecord
  2
ByBlock
 70
0
  3

 72
65
 73
0
 40
0.0
  0
LTYPE
  5
15
100
AcDbSymbolTableRecord
100
AcDbLinetypeTableRecord
  2
ByLayer
 70
0
  3

 72
65
 73
0
 40
0.0
  0
LTYPE
  5
16
100
AcDbSymbolTableRecord
100
AcDbLinetypeTableRecord
  2
CONTINUOUS
 70
0
  3
Solid line
 72
65
 73
0
 40
0.0
  0
LTYPE
  5
31
100
AcDbSymbolTableRecord
100
AcDbLinetypeTableRecord
  2
DOT
 70
0
  3
Dot . . . . . . . . . . . . . . . . . . . . . .
 72
65
 73
2
 40
6.3499999999999996
 49
0.0
 74
0
 49
-6.3499999999999996
 74
0
  0
LTYPE
  5
32
100
AcDbSymbolTableRecord
100
AcDbLinetypeTableRecord
  2
DOT2
 70
0
  3
Dot (.5x) .....................................
 72
65
 73
2
 40
3.1749999999999998
 49
0.0
 74
0
 49
-3.1749999999999998
 74
0
  0
LTYPE
  5
33
100
AcDbSymbolTableRecord
100
AcDbLinetypeTableRecord
  2
DOTX2
 70
0
  3
Dot (2x) .  .  .  .  .  .  .  .  .  .  .  .  .
 72
65
 73
2
 40
12.6999999999999993
 49
0.0
 74
0
 49
-12.6999999999999993
 74
0
  0
LTYPE
  5
34
100
AcDbSymbolTableRecord
100
AcDbLinetypeTableRecord
  2
DASHED
 70
0
  3
Dashed __ __ __ __ __ __ __ __ __ __ __ __ __ _
 72
65
 73
2
 40
19.0500000000000007
 49
12.6999999999999993
 74
0
 49
-6.3499999999999996
 74
0
  0
LTYPE
  5
35
100
AcDbSymbolTableRecord
100
AcDbLinetypeTableRecord
  2
DASHED2
 70
0
  3
Dashed (.5x) _ _ _ _ _ _ _ _ _ _ _ _ _ _ _ _ _
 72
65
 73
2
 40
9.5250000000000004
 49
6.3499999999999996
 74
0
 49
-3.1749999999999998
 74
0
  0
LTYPE
  5
36
100
AcDbSymbolTableRecord
100
AcDbLinetypeTableRecord
  2
DASHEDX2
 70
0
  3
Dashed (2x) ____  ____  ____  ____  ____  ___
 72
65
 73
2
 40
38.1000000000000014
 49
25.3999999999999986
 74
0
 49
-12.6999999999999993
 74
0
  0
LTYPE
  5
37
100
AcDbSymbolTableRecord
100
AcDbLinetypeTableRecord
  2
DASHDOT
 70
0
  3
Dash dot __ . __ . __ . __ . __ . __ . __ . __
 72
65
 73
4
 40
25.3999999999999986
 49
12.6999999999999993
 74
0
 49
-6.3499999999999996
 74
0
 49
0.0
 74
0
 49
-6.3499999999999996
 74
0
  0
LTYPE
  5
38
100
AcDbSymbolTableRecord
100
AcDbLinetypeTableRecord
  2
DASHDOT2
 70
0
  3
Dash dot (.5x) _._._._._._._._._._._._._._._.
 72
65
 73
4
 40
12.6999999999999993
 49
6.3499999999999996
 74
0
 49
-3.1749999999999998
 74
0
 49
0.0
 74
0
 49
-3.1749999999999998
 74
0
  0
LTYPE
  5
39
100
AcDbSymbolTableRecord
100
AcDbLinetypeTableRecord
  2
DASHDOTX2
 70
0
  3
Dash dot (2x) ____  .  ____  .  ____  .  ___
 72
65
 73
4
 40
50.7999999999999972
 49
25.3999999999999986
 74
0
 49
-12.6999999999999993
 74
0
 49
0.0
 74
0
 49
-12.6999999999999993
 74
0
  0
LTYPE
  5
3A
100
AcDbSymbolTableRecord
100
AcDbLinetypeTableRecord
  2
DIVIDE
 70
0
  3
Divide ____ . . ____ . . ____ . . ____ . . ____
 72
65
 73
6
 40
31.75
 49
12.6999999999999993
 74
0
 49
-6.3499999999999996
 74
0
 49
0.0
 74
0
 49
-6.3499999999999996
 74
0
 49
0.0
 74
0
 49
-6.3499999999999996
 74
0
  0
LTYPE
  5
3B
100
AcDbSymbolTableRecord
100
AcDbLinetypeTableRecord
  2
DIVIDE2
 70
0
  3
Divide (.5x) __..__..__..__..__..__..__..__.._
 72
65
 73
6
 40
15.875
 49
6.3499999999999996
 74
0
 49
-3.1749999999999998
 74
0
 49
0.0
 74
0
 49
-3.1749999999999998
 74
0
 49
0.0
 74
0
 49
-3.1749999999999998
 74
0
  0
LTYPE
  5
3C
100
AcDbSymbolTableRecord
100
AcDbLinetypeTableRecord
  2
DIVIDEX2
 70
0
  3
Divide (2x) ________  .  .  ________  .  .  _
 72
65
 73
6
 40
63.5
 49
25.3999999999999986
 74
0
 49
-12.6999999999999993
 74
0
 49
0.0
 74
0
 49
-12.6999999999999993
 74
0
 49
0.0
 74
0
 49
-12.6999999999999993
 74
0
  0
LTYPE
  5
3D
100
AcDbSymbolTableRecord
100
AcDbLinetypeTableRecord
  2
CENTER
 70
0
  3
Center ____ _ ____ _ ____ _ ____ _ ____ _ ____
 72
65
 73
4
 40
50.7999999999999972
 49
31.75
 74
0
 49
-6.3499999999999996
 74
0
 49
6.3499999999999996
 74
0
 49
-6.3499999999999996
 74
0
  0
LTYPE
  5
3E
100
AcDbSymbolTableRecord
100
AcDbLinetypeTableRecord
  2
CENTER2
 70
0
  3
Center (.5x) ___ _ ___ _ ___ _ ___ _ ___ _ ___
 72
65
 73
4
 40
28.5749999999999993
 49
19.0500000000000007
 74
0
 49
-3.1749999999999998
 74
0
 49
3.1749999999999998
 74
0
 49
-3.1749999999999998
 74
0
  0
LTYPE
  5
3F
100
AcDbSymbolTableRecord
100
AcDbLinetypeTableRecord
  2
CENTERX2
 70
0
  3
Center (2x) ________  __  ________  __  _____
 72
65
 73
4
 40
101.5999999999999943
 49
63.5
 74
0
 49
-12.6999999999999993
 74
0
 49
12.6999999999999993
 74
0
 49
-12.6999999999999993
 74
0
  0
LTYPE
  5
40
100
AcDbSymbolTableRecord
100
AcDbLinetypeTableRecord
  2
BORDER
 70
0
  3
Border __ __ . __ __ . __ __ . __ __ . __ __ .
 72
65
 73
6
 40
44.4500000000000028
 49
12.6999999999999993
 74
0
 49
-6.3499999999999996
 74
0
 49
12.6999999999999993
 74
0
 49
-6.3499999999999996
 74
0
 49
0.0
 74
0
 49
-6.3499999999999996
 74
0
  0
LTYPE
  5
41
100
AcDbSymbolTableRecord
100
AcDbLinetypeTableRecord
  2
BORDER2
 70
0
  3
Border (.5x) __.__.__.__.__.__.__.__.__.__.__.
 72
65
 73
6
 40
22.2250000000000014
 49
6.3499999999999996
 74
0
 49
-3.1749999999999998
 74
0
 49
6.3499999999999996
 74
0
 49
-3.1749999999999998
 74
0
 49
0.0
 74
0
 49
-3.1749999999999998
 74
0
  0
LTYPE
  5
42
100
AcDbSymbolTableRecord
100
AcDbLinetypeTableRecord
  2
BORDERX2
 70
0
  3
Border (2x) ____  ____  .  ____  ____  .  ___
 72
65
 73
6
 40
88.9000000000000057
 49
25.3999999999999986
 74
0
 49
-12.6999999999999993
 74
0
 49
25.3999999999999986
 74
0
 49
-12.6999999999999993
 74
0
 49
0.0
 74
0
 49
-12.6999999999999993
 74
0
  0
ENDTAB
  0
TABLE
  2
LAYER
  5
2
100
AcDbSymbolTable
 70
3
  0
LAYER
  5
10
100
AcDbSymbolTableRecord
100
AcDbLayerTableRecord
  2
0
 70
0
 62
7
420
0
  6
CONTINUOUS
370
25
390
F
  0
LAYER
  5
43
100
AcDbSymbolTableRecord
100
AcDbLayerTableRecord
  2
drawing
 70
1
 62
-1
420
16711680
  6
CONTINUOUS
370
0
390
F
  0
LAYER
  5
44
100
AcDbSymbolTableRecord
100
AcDbLayerTableRecord
  2
cut
 70
0
 62
7
420
0
  6
CONTINUOUS
370
0
390
F
  0
ENDTAB
  0
TABLE
  2
STYLE
  5
3
100
AcDbSymbolTable
 70
1
  0
STYLE
  5
11
100
AcDbSymbolTableRecord
100
AcDbTextStyleTableRecord
  2
Standard
 70
0
 40
0.0
 41
0.75
 50
0.0
 71
0
 42
2.5
  3
txt
  4

  0
ENDTAB
  0
TABLE
  2
VIEW
  5
6
100
AcDbSymbolTable
 70
0
  0
ENDTAB
  0
TABLE
  2
UCS
  5
7
100
AcDbSymbolTable
 70
0
  0
ENDTAB
  0
TABLE
  2
APPID
  5
9
100
AcDbSymbolTable
 70
1
  0
APPID
  5
12
100
AcDbSymbolTableRecord
100
AcDbRegAppTableRecord
  2
ACAD
 70
0
  0
ENDTAB
  0
TABLE
  2
DIMSTYLE
  5
A
100
AcDbSymbolTable
 70
1
100
AcDbDimStyleTable
 71
0
  0
DIMSTYLE
105
27
100
AcDbSymbolTableRecord
100
AcDbDimStyleTableRecord
  2
Standard
 41
2.5
 42
0.625
 43
3.75
 44
1.25
 70
0
 73
0
 74
0
 77
1
 78
8
140
2.5
141
2.5
143
0.03937007874016
147
0.625
171
3
172
1
271
2
272
2
274
3
278
44
283
0
284
8
340
11
  0
ENDTAB
  0
TABLE
  2
BLOCK_RECORD
  5
1
100
AcDbSymbolTable
 70
1
  0
BLOCK_RECORD
  5
1F
100
AcDbSymbolTableRecord
100
AcDbBlockTableRecord
  2
*Model_Space
340
22
  0
BLOCK_RECORD
  5
1B
100
AcDbSymbolTableRecord
100
AcDbBlockTableRecord
  2
*Paper_Space
340
1E
  0
BLOCK_RECORD
  5
23
100
AcDbSymbolTableRecord
100
AcDbBlockTableRecord
  2
*Paper_Space0
340
26
  0
ENDTAB
  0
ENDSEC
  0
SECTION
  2
BLOCKS
  0
BLOCK
  5
20
100
AcDbEntity
  8
0
100
AcDbBlockBegin
  2
*Model_Space
 70
0
 10
0.0
 20
0.0
 30
0.0
  3
*Model_Space
  1

  0
ENDBLK
  5
21
100
AcDbEntity
  8
0
100
AcDbBlockEnd
  0
BLOCK
  5
1C
100
AcDbEntity
 67
1
  8
0
100
AcDbBlockBegin
  2
*Paper_Space
 70
0
 10
0.0
 20
0.0
 30
0.0
  3
*Paper_Space
  1

  0
ENDBLK
  5
1D
100
AcDbEntity
 67
1
  8
0
100
AcDbBlockEnd
  0
BLOCK
  5
24
100
AcDbEntity
  8
0
100
AcDbBlockBegin
  2
*Paper_Space0
 70
0
 10
0.0
 20
0.0
 30
0.0
  3
*Paper_Space0
  1

  0
ENDBLK
  5
25
100
AcDbEntity
  8
0
100
AcDbBlockEnd
  0
ENDSEC
  0
SECTION
  2
ENTITIES
  0
CIRCLE
  5
45
100
AcDbEntity
100
AcDbCircle
  8
drawing
 62
256
370
-1
  6
ByLayer
 10
80.0
 20
70.0
 30
0.0
 40
3.5
  0
CIRCLE
  5
46
100
AcDbEntity
100
AcDbCircle
  8
drawing
 62
256
370
-1
  6
ByLayer
 10
80.0
 20
70.0
 30
0.0
 40
12.0
  0
LINE
  5
47
100
AcDbEntity
100
AcDbLine
  8
drawing
 62
256
370
-1
  6
ByLayer
 10
80.0
 20
70.0
 30
0.0
 11
125.8900000000000006
 21
69.9999999999999858
 31
0.0
  0
LINE
  5
48
100
AcDbEntity
100
AcDbLine
  8
drawing
 62
256
370
-1
  6
ByLayer
 10
125.8900000000000006
 20
65.9851452307953252
 30
0.0
 11
125.8900000000000006
 21
74.0148547692046463
 31
0.0
  0
LINE
  5
49
100
AcDbEntity
100
AcDbLine
  8
drawing
 62
256
370
-1
  6
ByLayer
 10
125.3900000000000006
 20
65.9851452307953252
 30
0.0
 11
125.3900000000000006
 21
74.0148547692046463
 31
0.0
  0
LINE
  5
4A
100
AcDbEntity
100
AcDbLine
  8
drawing
 62
256
370
-1
  6
ByLayer
 10
125.3900000000000006
 20
74.0148547692046463
 30
0.0
 11
125.8900000000000006
 21
74.0148547692046463
 31
0.0
  0
LINE
  5
4B
100
AcDbEntity
100
AcDbLine
  8
drawing
 62
256
370
-1
  6
ByLayer
 10
125.3900000000000006
 20
65.9851452307953252
 30
0.0
 11
125.8900000000000006
 21
65.9851452307953252
 31
0.0
  0
LINE
  5
4C
100
AcDbEntity
100
AcDbLine
  8
drawing
 62
256
370
-1
  6
ByLayer
 10
125.3900000000000006
 20
73.5148547692046463
 30
0.0
 11
125.8900000000000006
 21
73.5148547692046463
 31
0.0
  0
LINE
  5
4D
100
AcDbEntity
100
AcDbLine
  8
drawing
 62
256
370
-1
  6
ByLayer
 10
125.3900000000000006
 20
66.4851452307953252
 30
0.0
 11
125.8900000000000006
 21
66.4851452307953252
 31
0.0
  0
LINE
  5
4E
100
AcDbEntity
100
AcDbLine
  8
cut
 62
256
370
-1
  6
ByLayer
 10
125.8900000000000006
 20
74.0148547692046463
 30
0.0
 11
125.8900000000000006
 21
73.5148547692046463
 31
0.0
  0
LINE
  5
4F
100
AcDbEntity
100
AcDbLine
  8
cut
 62
256
370
-1
  6
ByLayer
 10
125.8900000000000006
 20
73.5148547692046463
 30
0.0
 11
125.3900000000000006
 21
73.5148547692046463
 31
0.0
  0
LINE
  5
50
100
AcDbEntity
100
AcDbLine
  8
cut
 62
256
370
-1
  6
ByLayer
 10
125.3900000000000006
 20
73.5148547692046463
 30
0.0
 11
125.3900000000000006
 21
66.4851452307953252
 31
0.0
  0
LINE
  5
51
100
AcDbEntity
100
AcDbLine
  8
cut
 62
256
370
-1
  6
ByLayer
 10
125.3900000000000006
 20
66.4851452307953252
 30
0.0
 11
125.8900000000000006
 21
66.4851452307953252
 31
0.0
  0
LINE
  5
52
100
AcDbEntity
100
AcDbLine
  8
cut
 62
256
370
-1
  6
ByLayer
 10
125.8900000000000006
 20
66.4851452307953252
 30
0.0
 11
125.8900000000000006
 21
65.9851452307953252
 31
0.0
  0
LINE
  5
53
100
AcDbEntity
100
AcDbLine
  8
cut
 62
256
370
-1
  6
ByLayer
 10
125.8900000000000006
 20
65.9851452307953394
 30
0.0
 11
125.8031759111665338
 21
65.4927413542892367
 31
0.0
  0
LINE
  5
54
100
AcDbEntity
100
AcDbLine
  8
cut
 62
256
370
-1
  6
ByLayer
 10
125.8031759111665338
 20
65.4927413542892367
 30
0.0
 11
125.310772034660431
 21
65.5795654431227319
 31
0.0
  0
LINE
  5
55
100
AcDbEntity
100
AcDbLine
  8
cut
 62
256
370
-1
  6
ByLayer
 10
125.310772034660431
 20
65.5795654431227319
 30
0.0
 11
124.0900757837878103
 21
58.6566529882733292
 31
0.0
  0
LINE
  5
56
100
AcDbEntity
100
AcDbLine
  8
cut
 62
256
370
-1
  6
ByLayer
 10
124.0900757837878103
 20
58.6566529882733292
 30
0.0
 11
124.5824796602939131
 21
58.5698288994398695
 31
0.0
  0
LINE
  5
57
100
AcDbEntity
100
AcDbLine
  8
cut
 62
256
370
-1
  6
ByLayer
 10
124.5824796602939131
 20
58.5698288994398695
 30
0.0
 11
124.4956555714604463
 21
58.0774250229337881
 31
0.0
  0
LINE
  5
58
100
AcDbEntity
100
AcDbLine
  8
cut
 62
256
370
-1
  6
ByLayer
 10
124.4956555714604463
 20
58.077425022933781
 30
0.0
 11
124.3246454997976116
 21
57.6075787125408283
 31
0.0
  0
LINE
  5
59
100
AcDbEntity
100
AcDbLine
  8
cut
 62
256
370
-1
  6
ByLayer
 10
124.3246454997976116
 20
57.6075787125408283
 30
0.0
 11
123.8547991894046731
 21
57.7785887842036914
 31
0.0
  0
LINE
  5
5A
100
AcDbEntity
100
AcDbLine
  8
cut
 62
256
370
-1
  6
ByLayer
 10
123.8547991894046731
 20
57.7785887842036914
 30
0.0
 11
121.4504969255400937
 21
51.1728226046921151
 31
0.0
  0
LINE
  5
5B
100
AcDbEntity
100
AcDbLine
  8
cut
 62
256
370
-1
  6
ByLayer
 10
121.4504969255400937
 20
51.1728226046921151
 30
0.0
 11
121.9203432359330463
 21
51.0018125330292804
 31
0.0
  0
LINE
  5
5C
100
AcDbEntity
100
AcDbLine
  8
cut
 62
256
370
-1
  6
ByLayer
 10
121.9203432359330463
 20
51.0018125330292804
 30
0.0
 11
121.7493331642702117
 21
50.5319662226363491
 31
0.0
  0
LINE
  5
5D
100
AcDbEntity
100
AcDbLine
  8
cut
 62
256
370
-1
  6
ByLayer
 10
121.7493331642702117
 20
50.5319662226363349
 30
0.0
 11
121.4993331642702117
 21
50.0989535207441179
 31
0.0
  0
LINE
  5
5E
100
AcDbEntity
100
AcDbLine
  8
cut
 62
256
370
-1
  6
ByLayer
 10
121.4993331642702117
 20
50.0989535207441179
 30
0.0
 11
121.0663204623780018
 21
50.3489535207441463
 31
0.0
  0
LINE
  5
5F
100
AcDbEntity
100
AcDbLine
  8
cut
 62
256
370
-1
  6
ByLayer
 10
121.0663204623780018
 20
50.3489535207441463
 30
0.0
 11
117.5514656931733271
 21
44.2610464792558389
 31
0.0
  0
LINE
  5
60
100
AcDbEntity
100
AcDbLine
  8
cut
 62
256
370
-1
  6
ByLayer
 10
117.5514656931733271
 20
44.2610464792558389
 30
0.0
 11
117.9844783950655653
 21
44.0110464792558815
 31
0.0
  0
LINE
  5
61
100
AcDbEntity
100
AcDbLine
  8
cut
 62
256
370
-1
  6
ByLayer
 10
117.9844783950655653
 20
44.0110464792558815
 30
0.0
 11
117.7344783950655511
 21
43.5780337773636433
 31
0.0
  0
LINE
  5
62
100
AcDbEntity
100
AcDbLine
  8
cut
 62
256
370
-1
  6
ByLayer
 10
117.7344783950655653
 20
43.5780337773636575
 30
0.0
 11
117.4130845902222973
 21
43.1950115558041716
 31
0.0
  0
LINE
  5
63
100
AcDbEntity
100
AcDbLine
  8
cut
 62
256
370
-1
  6
ByLayer
 10
117.4130845902222973
 20
43.1950115558041716
 30
0.0
 11
117.0300623686628114
 21
43.516405360647461
 31
0.0
  0
LINE
  5
64
100
AcDbEntity
100
AcDbLine
  8
cut
 62
256
370
-1
  6
ByLayer
 10
117.0300623686628114
 20
43.516405360647461
 30
0.0
 11
112.5114521776779952
 21
38.1313354320084841
 31
0.0
  0
LINE
  5
65
100
AcDbEntity
100
AcDbLine
  8
cut
 62
256
370
-1
  6
ByLayer
 10
112.5114521776779952
 20
38.1313354320084841
 30
0.0
 11
112.8944743992375095
 21
37.8099416271652515
 31
0.0
  0
LINE
  5
66
100
AcDbEntity
100
AcDbLine
  8
cut
 62
256
370
-1
  6
ByLayer
 10
112.8944743992375095
 20
37.8099416271652515
 30
0.0
 11
112.5730805943942414
 21
37.4269194056057515
 31
0.0
  0
LINE
  5
67
100
AcDbEntity
100
AcDbLine
  8
cut
 62
256
370
-1
  6
ByLayer
 10
112.5730805943942414
 20
37.4269194056057586
 30
0.0
 11
112.1900583728347556
 21
37.1055256007624905
 31
0.0
  0
LINE
  5
68
100
AcDbEntity
100
AcDbLine
  8
cut
 62
256
370
-1
  6
ByLayer
 10
112.1900583728347556
 20
37.1055256007624905
 30
0.0
 11
111.8686645679915017
 21
37.4885478223219977
 31
0.0
  0
LINE
  5
69
100
AcDbEntity
100
AcDbLine
  8
cut
 62
256
370
-1
  6
ByLayer
 10
111.8686645679915017
 20
37.4885478223219977
 30
0.0
 11
106.4835946393525319
 21
32.9699376313371744
 31
0.0
  0
LINE
  5
6A
100
AcDbEntity
100
AcDbLine
  8
cut
 62
256
370
-1
  6
ByLayer
 10
106.4835946393525319
 20
32.9699376313371744
 30
0.0
 11
106.8049884441958426
 21
32.5869154097777169
 31
0.0
  0
LINE
  5
6B
100
AcDbEntity
100
AcDbLine
  8
cut
 62
256
370
-1
  6
ByLayer
 10
106.8049884441958426
 20
32.5869154097777169
 30
0.0
 11
106.4219662226363425
 21
32.2655216049344347
 31
0.0
  0
LINE
  5
6C
100
AcDbEntity
100
AcDbLine
  8
cut
 62
256
370
-1
  6
ByLayer
 10
106.4219662226363425
 20
32.2655216049344347
 30
0.0
 11
105.9889535207441185
 21
32.0155216049344347
 31
0.0
  0
LINE
  5
6D
100
AcDbEntity
100
AcDbLine
  8
cut
 62
256
370
-1
  6
ByLayer
 10
105.9889535207441185
 20
32.0155216049344347
 30
0.0
 11
105.7389535207441469
 21
32.4485343068266729
 31
0.0
  0
LINE
  5
6E
100
AcDbEntity
100
AcDbLine
  8
cut
 62
256
370
-1
  6
ByLayer
 10
105.7389535207441469
 20
32.4485343068266729
 30
0.0
 11
99.6510464792558679
 21
28.9336795376219911
 31
0.0
  0
LINE
  5
6F
100
AcDbEntity
100
AcDbLine
  8
cut
 62
256
370
-1
  6
ByLayer
 10
99.6510464792558679
 20
28.9336795376219911
 30
0.0
 11
99.9010464792558679
 21
28.5006668357297812
 31
0.0
  0
LINE
  5
70
100
AcDbEntity
100
AcDbLine
  8
cut
 62
256
370
-1
  6
ByLayer
 10
99.9010464792558679
 20
28.5006668357297812
 30
0.0
 11
99.4680337773636722
 21
28.2506668357297883
 31
0.0
  0
LINE
  5
71
100
AcDbEntity
100
AcDbLine
  8
cut
 62
256
370
-1
  6
ByLayer
 10
99.468033777363658
 20
28.2506668357297812
 30
0.0
 11
98.9981874669707054
 21
28.0796567640669466
 31
0.0
  0
LINE
  5
72
100
AcDbEntity
100
AcDbLine
  8
cut
 62
256
370
-1
  6
ByLayer
 10
98.9981874669707054
 20
28.0796567640669466
 30
0.0
 11
98.8271773953078991
 21
28.5495030744599134
 31
0.0
  0
LINE
  5
73
100
AcDbEntity
100
AcDbLine
  8
cut
 62
256
370
-1
  6
ByLayer
 10
98.8271773953078991
 20
28.5495030744599134
 30
0.0
 11
92.2214112157962802
 21
26.1452008105953198
 31
0.0
  0
LINE
  5
74
100
AcDbEntity
100
AcDbLine
  8
cut
 62
256
370
-1
  6
ByLayer
 10
92.2214112157962802
 20
26.1452008105953198
 30
0.0
 11
92.3924212874591575
 21
25.6753545002023813
 31
0.0
  0
LINE
  5
75
100
AcDbEntity
100
AcDbLine
  8
cut
 62
256
370
-1
  6
ByLayer
 10
92.3924212874591575
 20
25.6753545002023813
 30
0.0
 11
91.9225749770662333
 21
25.5043444285395466
 31
0.0
  0
LINE
  5
76
100
AcDbEntity
100
AcDbLine
  8
cut
 62
256
370
-1
  6
ByLayer
 10
91.922574977066219
 20
25.5043444285395466
 30
0.0
 11
91.4301711005601021
 21
25.4175203397060798
 31
0.0
  0
LINE
  5
77
100
AcDbEntity
100
AcDbLine
  8
cut
 62
256
370
-1
  6
ByLayer
 10
91.4301711005601021
 20
25.4175203397060798
 30
0.0
 11
91.3433470117266779
 21
25.9099242162121897
 31
0.0
  0
LINE
  5
78
100
AcDbEntity
100
AcDbLine
  8
cut
 62
256
370
-1
  6
ByLayer
 10
91.3433470117266779
 20
25.9099242162121897
 30
0.0
 11
84.4204345568772538
 21
24.6892279653395619
 31
0.0
  0
LINE
  5
79
100
AcDbEntity
100
AcDbLine
  8
cut
 62
256
370
-1
  6
ByLayer
 10
84.4204345568772538
 20
24.6892279653395619
 30
0.0
 11
84.5072586457107633
 21
24.1968240888334662
 31
0.0
  0
LINE
  5
7A
100
AcDbEntity
100
AcDbLine
  8
cut
 62
256
370
-1
  6
ByLayer
 10
84.5072586457107633
 20
24.1968240888334662
 30
0.0
 11
84.0148547692046463
 21
24.1099999999999994
 31
0.0
  0
LINE
  5
7B
100
AcDbEntity
100
AcDbLine
  8
cut
 62
256
370
-1
  6
ByLayer
 10
84.0148547692046463
 20
24.1099999999999994
 30
0.0
 11
83.5148547692046463
 21
24.1099999999999994
 31
0.0
  0
LINE
  5
7C
100
AcDbEntity
100
AcDbLine
  8
cut
 62
256
370
-1
  6
ByLayer
 10
83.5148547692046463
 20
24.1099999999999994
 30
0.0
 11
83.5148547692046748
 21
24.6099999999999994
 31
0.0
  0
LINE
  5
7D
100
AcDbEntity
100
AcDbLine
  8
cut
 62
256
370
-1
  6
ByLayer
 10
83.5148547692046748
 20
24.6099999999999994
 30
0.0
 11
76.485145230795311
 21
24.6099999999999994
 31
0.0
  0
LINE
  5
7E
100
AcDbEntity
100
AcDbLine
  8
cut
 62
256
370
-1
  6
ByLayer
 10
76.485145230795311
 20
24.6099999999999994
 30
0.0
 11
76.4851452307953537
 21
24.1099999999999994
 31
0.0
  0
LINE
  5
7F
100
AcDbEntity
100
AcDbLine
  8
cut
 62
256
370
-1
  6
ByLayer
 10
76.4851452307953537
 20
24.1099999999999994
 30
0.0
 11
75.9851452307953394
 21
24.1099999999999994
 31
0.0
  0
CIRCLE
  5
80
100
AcDbEntity
100
AcDbCircle
  8
cut
 62
256
370
-1
  6
ByLayer
 10
80.0
 20
70.0
 30
0.0
 40
3.3999999999999999
  0
LINE
  5
81
100
AcDbEntity
100
AcDbLine
  8
cut
 62
256
370
-1
  6
ByLayer
 10
75.9851452307953394
 20
24.1099999999999994
 30
0.0
 11
75.9851452307953394
 21
58.5854942646562691
 31
0.0
  0
LINE
  5
82
100
AcDbEntity
100
AcDbLine
  8
cut
 62
256
370
-1
  6
ByLayer
 10
125.8900000000000006
 20
74.0148547692046463
 30
0.0
 11
91.414505735343738
 21
74.0148547692046463
 31
0.0
  0
ARC
  5
83
100
AcDbEntity
  8
cut
 62
256
370
-1
  6
ByLayer
100
AcDbCircle
 10
80.0
 20
70.0
 30
0.0
 40
12.0999999999999996
100
AcDbArc
 50
19.3784399373533986
 51
250.6215600626464948
  0
CIRCLE
  5
84
100
AcDbEntity
100
AcDbCircle
  8
drawing
 62
256
370
-1
  6
ByLayer
 10
80.0
 20
70.0
 30
0.0
 40
37.0
  0
CIRCLE
  5
85
100
AcDbEntity
100
AcDbCircle
  8
drawing
 62
256
370
-1
  6
ByLayer
 10
80.0
 20
70.0
 30
0.0
 40
20.0
  0
LINE
  5
86
100
AcDbEntity
100
AcDbLine
  8
drawing
 62
256
370
-1
  6
ByLayer
 10
80.0
 20
70.0
 30
0.0
 11
125.1928277857302305
 21
62.0312851268645673
 31
0.0
  0
LINE
  5
87
100
AcDbEntity
100
AcDbLine
  8
drawing
 62
256
370
-1
  6
ByLayer
 10
80.0
 20
70.0
 30
0.0
 11
123.122494367865329
 21
54.3046956227850686
 31
0.0
  0
LINE
  5
88
100
AcDbEntity
100
AcDbLine
  8
drawing
 62
256
370
-1
  6
ByLayer
 10
80.0
 20
70.0
 30
0.0
 11
119.7419057796678885
 21
47.0549999999999784
 31
0.0
  0
LINE
  5
89
100
AcDbEntity
100
AcDbLine
  8
drawing
 62
256
370
-1
  6
ByLayer
 10
80.0
 20
70.0
 30
0.0
 11
115.1537794947298892
 21
40.5024765914846938
 31
0.0
  0
LINE
  5
8A
100
AcDbEntity
100
AcDbLine
  8
drawing
 62
256
370
-1
  6
ByLayer
 10
80.0
 20
70.0
 30
0.0
 11
109.497523408515292
 21
34.8462205052700966
 31
0.0
  0
LINE
  5
8B
100
AcDbEntity
100
AcDbLine
  8
drawing
 62
256
370
-1
  6
ByLayer
 10
80.0
 20
70.0
 30
0.0
 11
102.9450000000000074
 21
30.2580942203321115
 31
0.0
  0
LINE
  5
8C
100
AcDbEntity
100
AcDbLine
  8
drawing
 62
256
370
-1
  6
ByLayer
 10
80.0
 20
70.0
 30
0.0
 11
95.6953043772149101
 21
26.8775056321346568
 31
0.0
  0
LINE
  5
8D
100
AcDbEntity
100
AcDbLine
  8
drawing
 62
256
370
-1
  6
ByLayer
 10
80.0
 20
70.0
 30
0.0
 11
87.9687148731354114
 21
24.8071722142697695
 31
0.0
  0
LINE
  5
8E
100
AcDbEntity
100
AcDbLine
  8
drawing
 62
256
370
-1
  6
ByLayer
 10
80.0
 20
70.0
 30
0.0
 11
79.9999999999999858
 21
24.1099999999999994
 31
0.0
  0
LINE
  5
8F
100
AcDbEntity
100
AcDbLine
  8
cut
 62
256
370
-1
  6
ByLayer
 10
86.4249825736764024
 20
33.5621131385482983
 30
0.0
 11
83.4729635533386016
 21
50.3038449397558338
 31
0.0
  0
LINE
  5
90
100
AcDbEntity
100
AcDbLine
  8
cut
 62
256
370
-1
  6
ByLayer
 10
83.4729635533386016
 20
50.3038449397558338
 30
0.0
 11
86.840402866513358
 21
51.2061475842818297
 31
0.0
  0
LINE
  5
91
100
AcDbEntity
100
AcDbLine
  8
cut
 62
256
370
-1
  6
ByLayer
 10
86.840402866513358
 20
51.2061475842818297
 30
0.0
 11
92.6547453030497223
 21
35.2313730309213824
 31
0.0
  0
LINE
  5
92
100
AcDbEntity
100
AcDbLine
  8
cut
 62
256
370
-1
  6
ByLayer
 10
92.6547453030497223
 20
35.2313730309213824
 30
0.0
 11
86.4249825736764024
 21
33.5621131385482983
 31
0.0
  0
LINE
  5
93
100
AcDbEntity
100
AcDbLine
  8
cut
 62
256
370
-1
  6
ByLayer
 10
116.4378868614517017
 20
63.5750174263235763
 30
0.0
 11
114.7686269690786105
 21
57.3452546969502635
 31
0.0
  0
LINE
  5
94
100
AcDbEntity
100
AcDbLine
  8
cut
 62
256
370
-1
  6
ByLayer
 10
114.7686269690786105
 20
57.3452546969502635
 30
0.0
 11
98.7938524157181632
 21
63.1595971334866277
 31
0.0
  0
LINE
  5
95
100
AcDbEntity
100
AcDbLine
  8
cut
 62
256
370
-1
  6
ByLayer
 10
98.7938524157181632
 20
63.1595971334866277
 30
0.0
 11
99.6961550602441662
 21
66.5270364466613984
 31
0.0
  0
LINE
  5
96
100
AcDbEntity
100
AcDbLine
  8
cut
 62
256
370
-1
  6
ByLayer
 10
99.6961550602441662
 20
66.5270364466613984
 30
0.0
 11
116.4378868614517017
 21
63.5750174263235763
 31
0.0
  0
LINE
  5
97
100
AcDbEntity
100
AcDbLine
  8
cut
 62
256
370
-1
  6
ByLayer
 10
112.0429399400242119
 20
51.4999999999999858
 30
0.0
 11
97.3205080756887639
 21
59.9999999999999929
 31
0.0
  0
LINE
  5
98
100
AcDbEntity
100
AcDbLine
  8
cut
 62
256
370
-1
  6
ByLayer
 10
97.3205080756887639
 20
59.9999999999999929
 30
0.0
 11
95.3208888623795474
 21
57.1442478062692061
 31
0.0
  0
LINE
  5
99
100
AcDbEntity
100
AcDbLine
  8
cut
 62
256
370
-1
  6
ByLayer
 10
95.3208888623795474
 20
57.1442478062692061
 30
0.0
 11
108.3436443954021797
 21
46.2168584415980348
 31
0.0
  0
LINE
  5
9A
100
AcDbEntity
100
AcDbLine
  8
cut
 62
256
370
-1
  6
ByLayer
 10
108.3436443954021797
 20
46.2168584415980348
 30
0.0
 11
112.0429399400242119
 21
51.4999999999999858
 31
0.0
  0
LINE
  5
9B
100
AcDbEntity
100
AcDbLine
  8
cut
 62
256
370
-1
  6
ByLayer
 10
92.8557521937307797
 20
54.6791111376204384
 30
0.0
 11
90.0
 21
52.679491924311229
 31
0.0
  0
LINE
  5
9C
100
AcDbEntity
100
AcDbLine
  8
cut
 62
256
370
-1
  6
ByLayer
 10
90.0
 20
52.679491924311229
 30
0.0
 11
98.5
 21
37.9570600599757668
 31
0.0
  0
LINE
  5
9D
100
AcDbEntity
100
AcDbLine
  8
cut
 62
256
370
-1
  6
ByLayer
 10
98.5
 20
37.9570600599757668
 30
0.0
 11
103.783141558401951
 21
41.6563556045978061
 31
0.0
  0
LINE
  5
9E
100
AcDbEntity
100
AcDbLine
  8
cut
 62
256
370
-1
  6
ByLayer
 10
103.783141558401951
 20
41.6563556045978061
 30
0.0
 11
92.8557521937307797
 21
54.6791111376204455
 31
0.0
  0
ENDSEC
  0
SECTION
  2
OBJECTS
  0
DICTIONARY
  5
C
100
AcDbDictionary
280
0
281
1
  3
ACAD_GROUP
350
D
  3
ACAD_LAYOUT
350
1A
  3
ACAD_MLINESTYLE
350
17
  3
ACAD_PLOTSETTINGS
350
19
  3
ACAD_PLOTSTYLENAME
350
E
  3
AcDbVariableDictionary
350
9F
  0
DICTIONARY
  5
D
100
AcDbDictionary
280
0
281
1
  0
ACDBDICTIONARYWDFLT
  5
E
100
AcDbDictionary
281
1
  3
Normal
350
F
100
AcDbDictionaryWithDefault
340
F
  0
ACDBPLACEHOLDER
  5
F
  0
DICTIONARY
  5
17
100
AcDbDictionary
280
0
281
1
  3
Standard
350
18
  0
MLINESTYLE
  5
18
100
AcDbMlineStyle
  2
STANDARD
 70
0
  3

 62
256
 51
90.0
 52
90.0
 71
2
 49
0.5
 62
256
  6
BYLAYER
 49
-0.5
 62
256
  6
BYLAYER
  0
DICTIONARY
  5
19
100
AcDbDictionary
280
0
281
1
  0
DICTIONARY
  5
1A
100
AcDbDictionary
281
1
  3
Layout1
350
1E
  3
Layout2
350
26
  3
Model
350
22
  0
LAYOUT
  5
1E
100
AcDbPlotSettings
  1

  2
C:\Program Files\AutoCAD 2002\plotters\DWF ePlot (optimized for plotting).pc3
  4

  6

 40
0.0
 41
0.0
 42
0.0
 43
0.0
 44
0.0
 45
0.0
 46
0.0
 47
0.0
 48
0.0
 49
0.0
140
0.0
141
0.0
142
1.0
143
1.0
 70
688
 72
0
 73
0
 74
5
  7

 75
16
147
1.0
148
0.0
149
0.0
100
AcDbLayout
  1
Layout1
 70
1
 71
1
 10
0.0
 20
0.0
 11
420.0
 21
297.0
 12
0.0
 22
0.0
 32
0.0
 14
100000000000000000000.0
 24
100000000000000000000.0
 34
100000000000000000000.0
 15
-100000000000000000000.0
 25
-100000000000000000000.0
 35
-100000000000000000000.0
146
0.0
 13
0.0
 23
0.0
 33
0.0
 16
1.0
 26
0.0
 36
0.0
 17
0.0
 27
1.0
 37
0.0
 76
0
330
1B
  0
LAYOUT
  5
22
100
AcDbPlotSettings
  1

  2
C:\Program Files\AutoCAD 2002\plotters\DWF ePlot (optimized for plotting).pc3
  4

  6

 40
0.0
 41
0.0
 42
0.0
 43
0.0
 44
0.0
 45
0.0
 46
0.0
 47
0.0
 48
0.0
 49
0.0
140
0.0
141
0.0
142
1.0
143
1.0
 70
1712
 72
0
 73
0
 74
0
  7

 75
0
147
1.0
148
0.0
149
0.0
100
AcDbLayout
  1
Model
 70
1
 71
0
 10
0.0
 20
0.0
 11
12.0
 21
9.0
 12
0.0
 22
0.0
 32
0.0
 14
0.0
 24
0.0
 34
0.0
 15
0.0
 25
0.0
 35
0.0
146
0.0
 13
0.0
 23
0.0
 33
0.0
 16
1.0
 26
0.0
 36
0.0
 17
0.0
 27
1.0
 37
0.0
 76
0
330
1F
  0
LAYOUT
  5
26
100
AcDbPlotSettings
  1

  2
C:\Program Files\AutoCAD 2002\plotters\DWF ePlot (optimized for plotting).pc3
  4

  6

 40
0.0
 41
0.0
 42
0.0
 43
0.0
 44
0.0
 45
0.0
 46
0.0
 47
0.0
 48
0.0
 49
0.0
140
0.0
141
0.0
142
1.0
143
1.0
 70
688
 72
0
 73
0
 74
5
  7

 75
16
147
1.0
148
0.0
149
0.0
100
AcDbLayout
  1
Layout2
 70
1
 71
2
 10
0.0
 20
0.0
 11
12.0
 21
9.0
 12
0.0
 22
0.0
 32
0.0
 14
0.0
 24
0.0
 34
0.0
 15
0.0
 25
0.0
 35
0.0
146
0.0
 13
0.0
 23
0.0
 33
0.0
 16
1.0
 26
0.0
 36
0.0
 17
0.0
 27
1.0
 37
0.0
 76
0
330
23
  0
DICTIONARY
  5
9F
100
AcDbDictionary
281
1
  3
DIMASSOC
350
A1
  3
HIDETEXT
350
A0
  0
DICTIONARYVAR
  5
A0
100
DictionaryVariables
280
0
  1
2
  0
DICTIONARYVAR
  5
A1
100
DictionaryVariables
280
0
  1
1
  0
ENDSEC
  0
EOF
