solid Default
  facet normal -1.000000e+00 0.000000e+00 0.000000e+00
    outer loop
      vertex -1.908000e+01 1.722500e+01 0.000000e+00
      vertex -1.908000e+01 8.745000e+00 9.414691e-16
      vertex -1.908000e+01 1.722500e+01 1.060000e+01
    endloop
  endfacet
  facet normal -1.000000e+00 0.000000e+00 0.000000e+00
    outer loop
      vertex -1.908000e+01 1.722500e+01 1.060000e+01
      vertex -1.908000e+01 8.745000e+00 9.414691e-16
      vertex -1.908000e+01 8.745000e+00 1.060000e+01
    endloop
  endfacet
  facet normal 0.000000e+00 -6.123234e-17 -1.000000e+00
    outer loop
      vertex -1.908000e+01 8.745000e+00 9.414691e-16
      vertex -1.908000e+01 1.722500e+01 0.000000e+00
      vertex 1.908000e+01 1.722500e+01 0.000000e+00
    endloop
  endfacet
  facet normal 0.000000e+00 -6.123234e-17 -1.000000e+00
    outer loop
      vertex -7.950000e+00 8.745000e+00 9.414691e-16
      vertex -1.908000e+01 8.745000e+00 9.414691e-16
      vertex 1.908000e+01 1.722500e+01 0.000000e+00
    endloop
  endfacet
  facet normal 0.000000e+00 -6.123234e-17 -1.000000e+00
    outer loop
      vertex 7.950000e+00 8.745000e+00 9.414691e-16
      vertex -7.950000e+00 8.745000e+00 9.414691e-16
      vertex 1.908000e+01 1.722500e+01 0.000000e+00
    endloop
  endfacet
  facet normal 0.000000e+00 -6.123234e-17 -1.000000e+00
    outer loop
      vertex 1.908000e+01 8.745000e+00 9.414691e-16
      vertex 7.950000e+00 8.745000e+00 9.414691e-16
      vertex 1.908000e+01 1.722500e+01 0.000000e+00
    endloop
  endfacet
  facet normal 0.000000e+00 -6.123234e-17 -1.000000e+00
    outer loop
      vertex 7.950000e+00 -9.275000e+00 1.882938e-15
      vertex 7.679111e+00 -7.217388e+00 1.882938e-15
      vertex 7.950000e+00 8.745000e+00 9.414691e-16
    endloop
  endfacet
  facet normal 0.000000e+00 -6.123234e-17 -1.000000e+00
    outer loop
      vertex 7.679111e+00 -7.217388e+00 1.882938e-15
      vertex 6.884903e+00 -5.300000e+00 9.414691e-16
      vertex 7.950000e+00 8.745000e+00 9.414691e-16
    endloop
  endfacet
  facet normal 0.000000e+00 -6.123234e-17 -1.000000e+00
    outer loop
      vertex 6.884903e+00 -5.300000e+00 9.414691e-16
      vertex 5.621499e+00 -3.653501e+00 9.414691e-16
      vertex 7.950000e+00 8.745000e+00 9.414691e-16
    endloop
  endfacet
  facet normal 0.000000e+00 -6.123234e-17 -1.000000e+00
    outer loop
      vertex 5.621499e+00 -3.653501e+00 9.414691e-16
      vertex 3.975000e+00 -2.390096e+00 9.414691e-16
      vertex 7.950000e+00 8.745000e+00 9.414691e-16
    endloop
  endfacet
  facet normal 0.000000e+00 -6.123234e-17 -1.000000e+00
    outer loop
      vertex 2.057612e+00 -1.595889e+00 9.414691e-16
      vertex -7.950000e+00 8.745000e+00 9.414691e-16
      vertex 3.975000e+00 -2.390096e+00 9.414691e-16
    endloop
  endfacet
  facet normal 0.000000e+00 -6.123234e-17 -1.000000e+00
    outer loop
      vertex 3.975000e+00 -2.390096e+00 9.414691e-16
      vertex -7.950000e+00 8.745000e+00 9.414691e-16
      vertex 7.950000e+00 8.745000e+00 9.414691e-16
    endloop
  endfacet
  facet normal 0.000000e+00 -6.123234e-17 -1.000000e+00
    outer loop
      vertex 0.000000e+00 -1.325000e+00 9.414691e-16
      vertex -7.950000e+00 8.745000e+00 9.414691e-16
      vertex 2.057612e+00 -1.595889e+00 9.414691e-16
    endloop
  endfacet
  facet normal 0.000000e+00 -6.123234e-17 -1.000000e+00
    outer loop
      vertex -2.057612e+00 -1.595889e+00 9.414691e-16
      vertex -7.950000e+00 8.745000e+00 9.414691e-16
      vertex 0.000000e+00 -1.325000e+00 9.414691e-16
    endloop
  endfacet
  facet normal 0.000000e+00 -6.123234e-17 -1.000000e+00
    outer loop
      vertex -3.975000e+00 -2.390096e+00 9.414691e-16
      vertex -7.950000e+00 8.745000e+00 9.414691e-16
      vertex -2.057612e+00 -1.595889e+00 9.414691e-16
    endloop
  endfacet
  facet normal 0.000000e+00 -6.123234e-17 -1.000000e+00
    outer loop
      vertex -5.621499e+00 -3.653501e+00 9.414691e-16
      vertex -7.950000e+00 8.745000e+00 9.414691e-16
      vertex -3.975000e+00 -2.390096e+00 9.414691e-16
    endloop
  endfacet
  facet normal 0.000000e+00 -6.123234e-17 -1.000000e+00
    outer loop
      vertex -6.884903e+00 -5.300000e+00 9.414691e-16
      vertex -7.950000e+00 8.745000e+00 9.414691e-16
      vertex -5.621499e+00 -3.653501e+00 9.414691e-16
    endloop
  endfacet
  facet normal 0.000000e+00 -6.123234e-17 -1.000000e+00
    outer loop
      vertex -7.679111e+00 -7.217388e+00 1.882938e-15
      vertex -7.950000e+00 8.745000e+00 9.414691e-16
      vertex -6.884903e+00 -5.300000e+00 9.414691e-16
    endloop
  endfacet
  facet normal 0.000000e+00 -6.123234e-17 -1.000000e+00
    outer loop
      vertex -7.950000e+00 -9.275000e+00 1.882938e-15
      vertex -7.950000e+00 8.745000e+00 9.414691e-16
      vertex -7.679111e+00 -7.217388e+00 1.882938e-15
    endloop
  endfacet
  facet normal 0.000000e+00 1.000000e+00 -6.123234e-17
    outer loop
      vertex -1.205607e+01 1.722500e+01 7.023927e+00
      vertex -1.908000e+01 1.722500e+01 1.060000e+01
      vertex 1.908000e+01 1.722500e+01 0.000000e+00
    endloop
  endfacet
  facet normal 0.000000e+00 1.000000e+00 -6.123234e-17
    outer loop
      vertex 1.378000e+01 1.722500e+01 7.738000e+00
      vertex -1.908000e+01 1.722500e+01 1.060000e+01
      vertex 1.908000e+01 1.722500e+01 1.060000e+01
    endloop
  endfacet
  facet normal 0.000000e+00 1.000000e+00 -6.123234e-17
    outer loop
      vertex -1.908000e+01 1.722500e+01 0.000000e+00
      vertex -1.908000e+01 1.722500e+01 1.060000e+01
      vertex -1.621800e+01 1.722500e+01 5.300000e+00
    endloop
  endfacet
  facet normal 0.000000e+00 1.000000e+00 -6.123234e-17
    outer loop
      vertex -1.908000e+01 1.722500e+01 0.000000e+00
      vertex -1.621800e+01 1.722500e+01 5.300000e+00
      vertex -1.550393e+01 1.722500e+01 3.576073e+00
    endloop
  endfacet
  facet normal 0.000000e+00 1.000000e+00 -6.123234e-17
    outer loop
      vertex -1.908000e+01 1.722500e+01 0.000000e+00
      vertex -1.550393e+01 1.722500e+01 3.576073e+00
      vertex -1.378000e+01 1.722500e+01 2.862000e+00
    endloop
  endfacet
  facet normal 0.000000e+00 1.000000e+00 -6.123234e-17
    outer loop
      vertex -1.908000e+01 1.722500e+01 0.000000e+00
      vertex -1.378000e+01 1.722500e+01 2.862000e+00
      vertex 1.908000e+01 1.722500e+01 0.000000e+00
    endloop
  endfacet
  facet normal 0.000000e+00 1.000000e+00 -6.123234e-17
    outer loop
      vertex -1.134200e+01 1.722500e+01 5.300000e+00
      vertex 1.908000e+01 1.722500e+01 0.000000e+00
      vertex -1.205607e+01 1.722500e+01 3.576073e+00
    endloop
  endfacet
  facet normal 0.000000e+00 1.000000e+00 -6.123234e-17
    outer loop
      vertex 1.550393e+01 1.722500e+01 3.576073e+00
      vertex 1.908000e+01 1.722500e+01 0.000000e+00
      vertex 1.378000e+01 1.722500e+01 2.862000e+00
    endloop
  endfacet
  facet normal 0.000000e+00 1.000000e+00 -6.123234e-17
    outer loop
      vertex -1.550393e+01 1.722500e+01 7.023927e+00
      vertex -1.908000e+01 1.722500e+01 1.060000e+01
      vertex -1.378000e+01 1.722500e+01 7.738000e+00
    endloop
  endfacet
  facet normal 0.000000e+00 1.000000e+00 -6.123234e-17
    outer loop
      vertex -1.378000e+01 1.722500e+01 7.738000e+00
      vertex -1.908000e+01 1.722500e+01 1.060000e+01
      vertex -1.205607e+01 1.722500e+01 7.023927e+00
    endloop
  endfacet
  facet normal 0.000000e+00 1.000000e+00 -6.123234e-17
    outer loop
      vertex -1.134200e+01 1.722500e+01 5.300000e+00
      vertex -1.205607e+01 1.722500e+01 7.023927e+00
      vertex 1.908000e+01 1.722500e+01 0.000000e+00
    endloop
  endfacet
  facet normal 0.000000e+00 1.000000e+00 -6.123234e-17
    outer loop
      vertex -1.621800e+01 1.722500e+01 5.300000e+00
      vertex -1.908000e+01 1.722500e+01 1.060000e+01
      vertex -1.550393e+01 1.722500e+01 7.023927e+00
    endloop
  endfacet
  facet normal 0.000000e+00 1.000000e+00 -6.123234e-17
    outer loop
      vertex 1.205607e+01 1.722500e+01 3.576073e+00
      vertex -1.908000e+01 1.722500e+01 1.060000e+01
      vertex 1.134200e+01 1.722500e+01 5.300000e+00
    endloop
  endfacet
  facet normal 0.000000e+00 1.000000e+00 -6.123234e-17
    outer loop
      vertex 1.908000e+01 1.722500e+01 0.000000e+00
      vertex -1.908000e+01 1.722500e+01 1.060000e+01
      vertex 1.205607e+01 1.722500e+01 3.576073e+00
    endloop
  endfacet
  facet normal 0.000000e+00 1.000000e+00 -6.123234e-17
    outer loop
      vertex 1.908000e+01 1.722500e+01 0.000000e+00
      vertex 1.205607e+01 1.722500e+01 3.576073e+00
      vertex 1.378000e+01 1.722500e+01 2.862000e+00
    endloop
  endfacet
  facet normal 0.000000e+00 1.000000e+00 -6.123234e-17
    outer loop
      vertex 1.378000e+01 1.722500e+01 7.738000e+00
      vertex 1.908000e+01 1.722500e+01 1.060000e+01
      vertex 1.550393e+01 1.722500e+01 7.023927e+00
    endloop
  endfacet
  facet normal 0.000000e+00 1.000000e+00 -6.123234e-17
    outer loop
      vertex 1.908000e+01 1.722500e+01 0.000000e+00
      vertex 1.550393e+01 1.722500e+01 3.576073e+00
      vertex 1.908000e+01 1.722500e+01 1.060000e+01
    endloop
  endfacet
  facet normal 0.000000e+00 1.000000e+00 -6.123234e-17
    outer loop
      vertex 1.550393e+01 1.722500e+01 3.576073e+00
      vertex 1.621800e+01 1.722500e+01 5.300000e+00
      vertex 1.908000e+01 1.722500e+01 1.060000e+01
    endloop
  endfacet
  facet normal 0.000000e+00 1.000000e+00 -6.123234e-17
    outer loop
      vertex 1.621800e+01 1.722500e+01 5.300000e+00
      vertex 1.550393e+01 1.722500e+01 7.023927e+00
      vertex 1.908000e+01 1.722500e+01 1.060000e+01
    endloop
  endfacet
  facet normal 0.000000e+00 1.000000e+00 -6.123234e-17
    outer loop
      vertex 1.205607e+01 1.722500e+01 7.023927e+00
      vertex -1.908000e+01 1.722500e+01 1.060000e+01
      vertex 1.378000e+01 1.722500e+01 7.738000e+00
    endloop
  endfacet
  facet normal 0.000000e+00 1.000000e+00 -6.123234e-17
    outer loop
      vertex 1.134200e+01 1.722500e+01 5.300000e+00
      vertex -1.908000e+01 1.722500e+01 1.060000e+01
      vertex 1.205607e+01 1.722500e+01 7.023927e+00
    endloop
  endfacet
  facet normal 0.000000e+00 1.000000e+00 -6.123234e-17
    outer loop
      vertex -1.205607e+01 1.722500e+01 3.576073e+00
      vertex 1.908000e+01 1.722500e+01 0.000000e+00
      vertex -1.378000e+01 1.722500e+01 2.862000e+00
    endloop
  endfacet
  facet normal 0.000000e+00 6.123234e-17 1.000000e+00
    outer loop
      vertex -1.908000e+01 1.722500e+01 1.060000e+01
      vertex -1.908000e+01 8.745000e+00 1.060000e+01
      vertex 1.908000e+01 1.722500e+01 1.060000e+01
    endloop
  endfacet
  facet normal 0.000000e+00 6.123234e-17 1.000000e+00
    outer loop
      vertex 1.908000e+01 1.722500e+01 1.060000e+01
      vertex -1.908000e+01 8.745000e+00 1.060000e+01
      vertex -7.950000e+00 8.745000e+00 1.060000e+01
    endloop
  endfacet
  facet normal 0.000000e+00 6.123234e-17 1.000000e+00
    outer loop
      vertex 7.950000e+00 8.745000e+00 1.060000e+01
      vertex -7.950000e+00 8.745000e+00 1.060000e+01
      vertex -7.950000e+00 -9.275000e+00 1.060000e+01
    endloop
  endfacet
  facet normal 0.000000e+00 6.123234e-17 1.000000e+00
    outer loop
      vertex -4.219713e+00 -8.234934e+00 1.060000e+01
      vertex -7.950000e+00 -9.275000e+00 1.060000e+01
      vertex -4.219713e+00 -9.275000e+00 1.060000e+01
    endloop
  endfacet
  facet normal 0.000000e+00 6.123234e-17 1.000000e+00
    outer loop
      vertex -3.253028e+00 -6.393069e+00 1.060000e+01
      vertex -7.950000e+00 -9.275000e+00 1.060000e+01
      vertex -4.219713e+00 -8.234934e+00 1.060000e+01
    endloop
  endfacet
  facet normal 0.000000e+00 6.123234e-17 1.000000e+00
    outer loop
      vertex 7.950000e+00 8.745000e+00 1.060000e+01
      vertex -3.253028e+00 -6.393069e+00 1.060000e+01
      vertex -1.541113e+00 -5.211419e+00 1.060000e+01
    endloop
  endfacet
  facet normal 0.000000e+00 6.123234e-17 1.000000e+00
    outer loop
      vertex 7.950000e+00 8.745000e+00 1.060000e+01
      vertex -1.541113e+00 -5.211419e+00 1.060000e+01
      vertex 5.238520e-01 -4.960687e+00 1.060000e+01
    endloop
  endfacet
  facet normal 0.000000e+00 6.123234e-17 1.000000e+00
    outer loop
      vertex 7.950000e+00 8.745000e+00 1.060000e+01
      vertex -7.950000e+00 -9.275000e+00 1.060000e+01
      vertex -3.253028e+00 -6.393069e+00 1.060000e+01
    endloop
  endfacet
  facet normal 0.000000e+00 6.123234e-17 1.000000e+00
    outer loop
      vertex 1.908000e+01 1.722500e+01 1.060000e+01
      vertex -7.950000e+00 8.745000e+00 1.060000e+01
      vertex 7.950000e+00 8.745000e+00 1.060000e+01
    endloop
  endfacet
  facet normal 0.000000e+00 6.123234e-17 1.000000e+00
    outer loop
      vertex 1.908000e+01 8.745000e+00 1.060000e+01
      vertex 1.908000e+01 1.722500e+01 1.060000e+01
      vertex 7.950000e+00 8.745000e+00 1.060000e+01
    endloop
  endfacet
  facet normal 0.000000e+00 6.123234e-17 1.000000e+00
    outer loop
      vertex 7.950000e+00 8.745000e+00 1.060000e+01
      vertex 5.238520e-01 -4.960687e+00 1.060000e+01
      vertex 2.468809e+00 -5.698313e+00 1.060000e+01
    endloop
  endfacet
  facet normal 0.000000e+00 6.123234e-17 1.000000e+00
    outer loop
      vertex 7.950000e+00 8.745000e+00 1.060000e+01
      vertex 2.468809e+00 -5.698313e+00 1.060000e+01
      vertex 3.848192e+00 -7.255313e+00 1.060000e+01
    endloop
  endfacet
  facet normal 0.000000e+00 6.123234e-17 1.000000e+00
    outer loop
      vertex 7.950000e+00 8.745000e+00 1.060000e+01
      vertex 3.848192e+00 -7.255313e+00 1.060000e+01
      vertex 4.346000e+00 -9.275000e+00 1.060000e+01
    endloop
  endfacet
  facet normal 0.000000e+00 6.123234e-17 1.000000e+00
    outer loop
      vertex 7.950000e+00 8.745000e+00 1.060000e+01
      vertex 4.346000e+00 -9.275000e+00 1.060000e+01
      vertex 7.950000e+00 -9.275000e+00 1.060000e+01
    endloop
  endfacet
  facet normal 0.000000e+00 -1.000000e+00 6.123234e-17
    outer loop
      vertex -1.550393e+01 8.745000e+00 3.576073e+00
      vertex -1.908000e+01 8.745000e+00 9.414691e-16
      vertex -7.950000e+00 8.745000e+00 9.414691e-16
    endloop
  endfacet
  facet normal 0.000000e+00 -1.000000e+00 6.123234e-17
    outer loop
      vertex -1.378000e+01 8.745000e+00 2.862000e+00
      vertex -1.550393e+01 8.745000e+00 3.576073e+00
      vertex -7.950000e+00 8.745000e+00 9.414691e-16
    endloop
  endfacet
  facet normal 0.000000e+00 -1.000000e+00 6.123234e-17
    outer loop
      vertex -1.908000e+01 8.745000e+00 1.060000e+01
      vertex -1.908000e+01 8.745000e+00 9.414691e-16
      vertex -1.550393e+01 8.745000e+00 3.576073e+00
    endloop
  endfacet
  facet normal 0.000000e+00 -1.000000e+00 6.123234e-17
    outer loop
      vertex -1.908000e+01 8.745000e+00 1.060000e+01
      vertex -1.550393e+01 8.745000e+00 3.576073e+00
      vertex -1.621800e+01 8.745000e+00 5.300000e+00
    endloop
  endfacet
  facet normal 0.000000e+00 -1.000000e+00 6.123234e-17
    outer loop
      vertex -1.908000e+01 8.745000e+00 1.060000e+01
      vertex -1.621800e+01 8.745000e+00 5.300000e+00
      vertex -1.550393e+01 8.745000e+00 7.023927e+00
    endloop
  endfacet
  facet normal 0.000000e+00 -1.000000e+00 6.123234e-17
    outer loop
      vertex -7.950000e+00 8.745000e+00 1.060000e+01
      vertex -1.908000e+01 8.745000e+00 1.060000e+01
      vertex -1.378000e+01 8.745000e+00 7.738000e+00
    endloop
  endfacet
  facet normal 0.000000e+00 -1.000000e+00 6.123234e-17
    outer loop
      vertex -7.950000e+00 8.745000e+00 1.060000e+01
      vertex -1.205607e+01 8.745000e+00 7.023927e+00
      vertex -7.950000e+00 8.745000e+00 9.414691e-16
    endloop
  endfacet
  facet normal 0.000000e+00 -1.000000e+00 6.123234e-17
    outer loop
      vertex -7.950000e+00 8.745000e+00 1.060000e+01
      vertex -1.378000e+01 8.745000e+00 7.738000e+00
      vertex -1.205607e+01 8.745000e+00 7.023927e+00
    endloop
  endfacet
  facet normal 0.000000e+00 -1.000000e+00 6.123234e-17
    outer loop
      vertex -1.205607e+01 8.745000e+00 7.023927e+00
      vertex -1.134200e+01 8.745000e+00 5.300000e+00
      vertex -7.950000e+00 8.745000e+00 9.414691e-16
    endloop
  endfacet
  facet normal 0.000000e+00 -1.000000e+00 6.123234e-17
    outer loop
      vertex -1.205607e+01 8.745000e+00 3.576073e+00
      vertex -1.378000e+01 8.745000e+00 2.862000e+00
      vertex -7.950000e+00 8.745000e+00 9.414691e-16
    endloop
  endfacet
  facet normal 0.000000e+00 -1.000000e+00 6.123234e-17
    outer loop
      vertex -1.550393e+01 8.745000e+00 7.023927e+00
      vertex -1.378000e+01 8.745000e+00 7.738000e+00
      vertex -1.908000e+01 8.745000e+00 1.060000e+01
    endloop
  endfacet
  facet normal 0.000000e+00 -1.000000e+00 6.123234e-17
    outer loop
      vertex -1.134200e+01 8.745000e+00 5.300000e+00
      vertex -1.205607e+01 8.745000e+00 3.576073e+00
      vertex -7.950000e+00 8.745000e+00 9.414691e-16
    endloop
  endfacet
  facet normal -1.000000e+00 0.000000e+00 0.000000e+00
    outer loop
      vertex -7.950000e+00 8.745000e+00 9.414691e-16
      vertex -7.950000e+00 -9.275000e+00 1.882938e-15
      vertex -7.950000e+00 8.745000e+00 1.060000e+01
    endloop
  endfacet
  facet normal -1.000000e+00 0.000000e+00 0.000000e+00
    outer loop
      vertex -7.950000e+00 8.745000e+00 1.060000e+01
      vertex -7.950000e+00 -9.275000e+00 1.882938e-15
      vertex -7.950000e+00 -9.275000e+00 5.300000e+00
    endloop
  endfacet
  facet normal -1.000000e+00 0.000000e+00 0.000000e+00
    outer loop
      vertex -7.950000e+00 8.745000e+00 1.060000e+01
      vertex -7.950000e+00 -9.275000e+00 5.300000e+00
      vertex -7.950000e+00 -9.275000e+00 1.060000e+01
    endloop
  endfacet
  facet normal 1.000000e+00 0.000000e+00 0.000000e+00
    outer loop
      vertex 7.950000e+00 -9.275000e+00 1.882938e-15
      vertex 7.950000e+00 8.745000e+00 9.414691e-16
      vertex 7.950000e+00 8.745000e+00 1.060000e+01
    endloop
  endfacet
  facet normal NaN NaN NaN
    outer loop
      vertex 7.950000e+00 -9.275000e+00 5.300000e+00
      vertex 7.950000e+00 -9.275000e+00 1.882938e-15
      vertex 7.950000e+00 -9.275000e+00 1.060000e+01
    endloop
  endfacet
  facet normal 1.000000e+00 0.000000e+00 0.000000e+00
    outer loop
      vertex 7.950000e+00 -9.275000e+00 1.060000e+01
      vertex 7.950000e+00 -9.275000e+00 1.882938e-15
      vertex 7.950000e+00 8.745000e+00 1.060000e+01
    endloop
  endfacet
  facet normal 0.000000e+00 -1.000000e+00 6.123234e-17
    outer loop
      vertex 1.205607e+01 8.745000e+00 3.576073e+00
      vertex 7.950000e+00 8.745000e+00 9.414691e-16
      vertex 1.908000e+01 8.745000e+00 9.414691e-16
    endloop
  endfacet
  facet normal 0.000000e+00 -1.000000e+00 6.123234e-17
    outer loop
      vertex 1.621800e+01 8.745000e+00 5.300000e+00
      vertex 1.550393e+01 8.745000e+00 3.576073e+00
      vertex 1.908000e+01 8.745000e+00 9.414691e-16
    endloop
  endfacet
  facet normal 0.000000e+00 -1.000000e+00 6.123234e-17
    outer loop
      vertex 1.378000e+01 8.745000e+00 2.862000e+00
      vertex 1.205607e+01 8.745000e+00 3.576073e+00
      vertex 1.908000e+01 8.745000e+00 9.414691e-16
    endloop
  endfacet
  facet normal 0.000000e+00 -1.000000e+00 6.123234e-17
    outer loop
      vertex 7.950000e+00 8.745000e+00 1.060000e+01
      vertex 7.950000e+00 8.745000e+00 9.414691e-16
      vertex 1.205607e+01 8.745000e+00 3.576073e+00
    endloop
  endfacet
  facet normal 0.000000e+00 -1.000000e+00 6.123234e-17
    outer loop
      vertex 7.950000e+00 8.745000e+00 1.060000e+01
      vertex 1.205607e+01 8.745000e+00 3.576073e+00
      vertex 1.134200e+01 8.745000e+00 5.300000e+00
    endloop
  endfacet
  facet normal 0.000000e+00 -1.000000e+00 6.123234e-17
    outer loop
      vertex 1.908000e+01 8.745000e+00 1.060000e+01
      vertex 7.950000e+00 8.745000e+00 1.060000e+01
      vertex 1.205607e+01 8.745000e+00 7.023927e+00
    endloop
  endfacet
  facet normal 0.000000e+00 -1.000000e+00 6.123234e-17
    outer loop
      vertex 1.550393e+01 8.745000e+00 3.576073e+00
      vertex 1.378000e+01 8.745000e+00 2.862000e+00
      vertex 1.908000e+01 8.745000e+00 9.414691e-16
    endloop
  endfacet
  facet normal 0.000000e+00 -1.000000e+00 6.123234e-17
    outer loop
      vertex 1.908000e+01 8.745000e+00 1.060000e+01
      vertex 1.205607e+01 8.745000e+00 7.023927e+00
      vertex 1.378000e+01 8.745000e+00 7.738000e+00
    endloop
  endfacet
  facet normal 0.000000e+00 -1.000000e+00 6.123234e-17
    outer loop
      vertex 1.908000e+01 8.745000e+00 1.060000e+01
      vertex 1.550393e+01 8.745000e+00 7.023927e+00
      vertex 1.908000e+01 8.745000e+00 9.414691e-16
    endloop
  endfacet
  facet normal 0.000000e+00 -1.000000e+00 6.123234e-17
    outer loop
      vertex 1.908000e+01 8.745000e+00 1.060000e+01
      vertex 1.378000e+01 8.745000e+00 7.738000e+00
      vertex 1.550393e+01 8.745000e+00 7.023927e+00
    endloop
  endfacet
  facet normal 0.000000e+00 -1.000000e+00 6.123234e-17
    outer loop
      vertex 1.550393e+01 8.745000e+00 7.023927e+00
      vertex 1.621800e+01 8.745000e+00 5.300000e+00
      vertex 1.908000e+01 8.745000e+00 9.414691e-16
    endloop
  endfacet
  facet normal 0.000000e+00 -1.000000e+00 6.123234e-17
    outer loop
      vertex 1.134200e+01 8.745000e+00 5.300000e+00
      vertex 1.205607e+01 8.745000e+00 7.023927e+00
      vertex 7.950000e+00 8.745000e+00 1.060000e+01
    endloop
  endfacet
  facet normal 1.000000e+00 0.000000e+00 0.000000e+00
    outer loop
      vertex 1.908000e+01 8.745000e+00 9.414691e-16
      vertex 1.908000e+01 1.722500e+01 0.000000e+00
      vertex 1.908000e+01 1.722500e+01 1.060000e+01
    endloop
  endfacet
  facet normal 1.000000e+00 0.000000e+00 0.000000e+00
    outer loop
      vertex 1.908000e+01 8.745000e+00 1.060000e+01
      vertex 1.908000e+01 8.745000e+00 9.414691e-16
      vertex 1.908000e+01 1.722500e+01 1.060000e+01
    endloop
  endfacet
  facet normal 9.238797e-01 -2.343257e-17 -3.826829e-01
    outer loop
      vertex -1.550393e+01 1.722500e+01 7.023927e+00
      vertex -1.550393e+01 8.745000e+00 7.023927e+00
      vertex -1.621800e+01 8.745000e+00 5.300000e+00
    endloop
  endfacet
  facet normal 9.238797e-01 -2.343257e-17 -3.826829e-01
    outer loop
      vertex -1.621800e+01 1.722500e+01 5.300000e+00
      vertex -1.550393e+01 1.722500e+01 7.023927e+00
      vertex -1.621800e+01 8.745000e+00 5.300000e+00
    endloop
  endfacet
  facet normal 9.238797e-01 2.343257e-17 3.826829e-01
    outer loop
      vertex -1.621800e+01 8.745000e+00 5.300000e+00
      vertex -1.550393e+01 8.745000e+00 3.576073e+00
      vertex -1.550393e+01 1.722500e+01 3.576073e+00
    endloop
  endfacet
  facet normal 9.238797e-01 2.343257e-17 3.826829e-01
    outer loop
      vertex -1.621800e+01 1.722500e+01 5.300000e+00
      vertex -1.621800e+01 8.745000e+00 5.300000e+00
      vertex -1.550393e+01 1.722500e+01 3.576073e+00
    endloop
  endfacet
  facet normal 3.826829e-01 -5.657132e-17 -9.238797e-01
    outer loop
      vertex -1.378000e+01 1.722500e+01 7.738000e+00
      vertex -1.378000e+01 8.745000e+00 7.738000e+00
      vertex -1.550393e+01 8.745000e+00 7.023927e+00
    endloop
  endfacet
  facet normal 3.826829e-01 -5.657132e-17 -9.238797e-01
    outer loop
      vertex -1.550393e+01 1.722500e+01 7.023927e+00
      vertex -1.378000e+01 1.722500e+01 7.738000e+00
      vertex -1.550393e+01 8.745000e+00 7.023927e+00
    endloop
  endfacet
  facet normal -3.826829e-01 -5.657132e-17 -9.238797e-01
    outer loop
      vertex -1.205607e+01 1.722500e+01 7.023927e+00
      vertex -1.205607e+01 8.745000e+00 7.023927e+00
      vertex -1.378000e+01 8.745000e+00 7.738000e+00
    endloop
  endfacet
  facet normal -3.826829e-01 -5.657132e-17 -9.238797e-01
    outer loop
      vertex -1.378000e+01 1.722500e+01 7.738000e+00
      vertex -1.205607e+01 1.722500e+01 7.023927e+00
      vertex -1.378000e+01 8.745000e+00 7.738000e+00
    endloop
  endfacet
  facet normal -9.238797e-01 -2.343257e-17 -3.826829e-01
    outer loop
      vertex -1.134200e+01 8.745000e+00 5.300000e+00
      vertex -1.205607e+01 8.745000e+00 7.023927e+00
      vertex -1.134200e+01 1.722500e+01 5.300000e+00
    endloop
  endfacet
  facet normal -9.238797e-01 -2.343257e-17 -3.826829e-01
    outer loop
      vertex -1.134200e+01 1.722500e+01 5.300000e+00
      vertex -1.205607e+01 8.745000e+00 7.023927e+00
      vertex -1.205607e+01 1.722500e+01 7.023927e+00
    endloop
  endfacet
  facet normal -9.238797e-01 2.343257e-17 3.826829e-01
    outer loop
      vertex -1.134200e+01 8.745000e+00 5.300000e+00
      vertex -1.134200e+01 1.722500e+01 5.300000e+00
      vertex -1.205607e+01 8.745000e+00 3.576073e+00
    endloop
  endfacet
  facet normal -9.238797e-01 2.343257e-17 3.826829e-01
    outer loop
      vertex -1.205607e+01 8.745000e+00 3.576073e+00
      vertex -1.134200e+01 1.722500e+01 5.300000e+00
      vertex -1.205607e+01 1.722500e+01 3.576073e+00
    endloop
  endfacet
  facet normal -3.826829e-01 5.657132e-17 9.238797e-01
    outer loop
      vertex -1.205607e+01 8.745000e+00 3.576073e+00
      vertex -1.205607e+01 1.722500e+01 3.576073e+00
      vertex -1.378000e+01 8.745000e+00 2.862000e+00
    endloop
  endfacet
  facet normal -3.826829e-01 5.657132e-17 9.238797e-01
    outer loop
      vertex -1.378000e+01 8.745000e+00 2.862000e+00
      vertex -1.205607e+01 1.722500e+01 3.576073e+00
      vertex -1.378000e+01 1.722500e+01 2.862000e+00
    endloop
  endfacet
  facet normal 3.826829e-01 5.657132e-17 9.238797e-01
    outer loop
      vertex -1.378000e+01 8.745000e+00 2.862000e+00
      vertex -1.378000e+01 1.722500e+01 2.862000e+00
      vertex -1.550393e+01 8.745000e+00 3.576073e+00
    endloop
  endfacet
  facet normal 3.826829e-01 5.657132e-17 9.238797e-01
    outer loop
      vertex -1.550393e+01 8.745000e+00 3.576073e+00
      vertex -1.378000e+01 1.722500e+01 2.862000e+00
      vertex -1.550393e+01 1.722500e+01 3.576073e+00
    endloop
  endfacet
  facet normal 9.238797e-01 2.343257e-17 3.826829e-01
    outer loop
      vertex 1.134200e+01 8.745000e+00 5.300000e+00
      vertex 1.205607e+01 8.745000e+00 3.576073e+00
      vertex 1.205607e+01 1.722500e+01 3.576073e+00
    endloop
  endfacet
  facet normal 9.238797e-01 2.343257e-17 3.826829e-01
    outer loop
      vertex 1.134200e+01 1.722500e+01 5.300000e+00
      vertex 1.134200e+01 8.745000e+00 5.300000e+00
      vertex 1.205607e+01 1.722500e+01 3.576073e+00
    endloop
  endfacet
  facet normal 9.238797e-01 -2.343257e-17 -3.826829e-01
    outer loop
      vertex 1.205607e+01 1.722500e+01 7.023927e+00
      vertex 1.205607e+01 8.745000e+00 7.023927e+00
      vertex 1.134200e+01 8.745000e+00 5.300000e+00
    endloop
  endfacet
  facet normal 9.238797e-01 -2.343257e-17 -3.826829e-01
    outer loop
      vertex 1.134200e+01 1.722500e+01 5.300000e+00
      vertex 1.205607e+01 1.722500e+01 7.023927e+00
      vertex 1.134200e+01 8.745000e+00 5.300000e+00
    endloop
  endfacet
  facet normal 3.826829e-01 -5.657132e-17 -9.238797e-01
    outer loop
      vertex 1.378000e+01 1.722500e+01 7.738000e+00
      vertex 1.378000e+01 8.745000e+00 7.738000e+00
      vertex 1.205607e+01 8.745000e+00 7.023927e+00
    endloop
  endfacet
  facet normal 3.826829e-01 -5.657132e-17 -9.238797e-01
    outer loop
      vertex 1.205607e+01 1.722500e+01 7.023927e+00
      vertex 1.378000e+01 1.722500e+01 7.738000e+00
      vertex 1.205607e+01 8.745000e+00 7.023927e+00
    endloop
  endfacet
  facet normal -3.826829e-01 -5.657132e-17 -9.238797e-01
    outer loop
      vertex 1.550393e+01 1.722500e+01 7.023927e+00
      vertex 1.550393e+01 8.745000e+00 7.023927e+00
      vertex 1.378000e+01 8.745000e+00 7.738000e+00
    endloop
  endfacet
  facet normal -3.826829e-01 -5.657132e-17 -9.238797e-01
    outer loop
      vertex 1.378000e+01 1.722500e+01 7.738000e+00
      vertex 1.550393e+01 1.722500e+01 7.023927e+00
      vertex 1.378000e+01 8.745000e+00 7.738000e+00
    endloop
  endfacet
  facet normal -9.238797e-01 -2.343257e-17 -3.826829e-01
    outer loop
      vertex 1.621800e+01 8.745000e+00 5.300000e+00
      vertex 1.550393e+01 8.745000e+00 7.023927e+00
      vertex 1.621800e+01 1.722500e+01 5.300000e+00
    endloop
  endfacet
  facet normal -9.238797e-01 -2.343257e-17 -3.826829e-01
    outer loop
      vertex 1.621800e+01 1.722500e+01 5.300000e+00
      vertex 1.550393e+01 8.745000e+00 7.023927e+00
      vertex 1.550393e+01 1.722500e+01 7.023927e+00
    endloop
  endfacet
  facet normal -9.238797e-01 2.343257e-17 3.826829e-01
    outer loop
      vertex 1.621800e+01 8.745000e+00 5.300000e+00
      vertex 1.621800e+01 1.722500e+01 5.300000e+00
      vertex 1.550393e+01 8.745000e+00 3.576073e+00
    endloop
  endfacet
  facet normal -9.238797e-01 2.343257e-17 3.826829e-01
    outer loop
      vertex 1.550393e+01 8.745000e+00 3.576073e+00
      vertex 1.621800e+01 1.722500e+01 5.300000e+00
      vertex 1.550393e+01 1.722500e+01 3.576073e+00
    endloop
  endfacet
  facet normal -3.826829e-01 5.657132e-17 9.238797e-01
    outer loop
      vertex 1.550393e+01 8.745000e+00 3.576073e+00
      vertex 1.550393e+01 1.722500e+01 3.576073e+00
      vertex 1.378000e+01 8.745000e+00 2.862000e+00
    endloop
  endfacet
  facet normal -3.826829e-01 5.657132e-17 9.238797e-01
    outer loop
      vertex 1.378000e+01 8.745000e+00 2.862000e+00
      vertex 1.550393e+01 1.722500e+01 3.576073e+00
      vertex 1.378000e+01 1.722500e+01 2.862000e+00
    endloop
  endfacet
  facet normal 3.826829e-01 5.657132e-17 9.238797e-01
    outer loop
      vertex 1.378000e+01 8.745000e+00 2.862000e+00
      vertex 1.378000e+01 1.722500e+01 2.862000e+00
      vertex 1.205607e+01 8.745000e+00 3.576073e+00
    endloop
  endfacet
  facet normal 3.826829e-01 5.657132e-17 9.238797e-01
    outer loop
      vertex 1.205607e+01 8.745000e+00 3.576073e+00
      vertex 1.378000e+01 1.722500e+01 2.862000e+00
      vertex 1.205607e+01 1.722500e+01 3.576073e+00
    endloop
  endfacet
  facet normal 9.914449e-01 -1.305260e-01 7.992412e-18
    outer loop
      vertex 7.679111e+00 -1.133261e+01 1.060000e+01
      vertex 7.679111e+00 -1.133261e+01 1.882938e-15
      vertex 7.950000e+00 -9.275000e+00 1.882938e-15
    endloop
  endfacet
  facet normal 9.914449e-01 -1.305260e-01 7.992412e-18
    outer loop
      vertex 7.950000e+00 -9.275000e+00 1.060000e+01
      vertex 7.679111e+00 -1.133261e+01 1.060000e+01
      vertex 7.950000e+00 -9.275000e+00 5.300000e+00
    endloop
  endfacet
  facet normal 9.914449e-01 -1.305260e-01 7.992412e-18
    outer loop
      vertex 7.950000e+00 -9.275000e+00 5.300000e+00
      vertex 7.679111e+00 -1.133261e+01 1.060000e+01
      vertex 7.950000e+00 -9.275000e+00 1.882938e-15
    endloop
  endfacet
  facet normal 0.000000e+00 6.123234e-17 1.000000e+00
    outer loop
      vertex -7.950000e+00 -9.275000e+00 1.060000e+01
      vertex -7.679111e+00 -1.133261e+01 1.060000e+01
      vertex -4.219713e+00 -9.275000e+00 1.060000e+01
    endloop
  endfacet
  facet normal 0.000000e+00 6.123234e-17 1.000000e+00
    outer loop
      vertex -4.219713e+00 -9.275000e+00 1.060000e+01
      vertex -7.679111e+00 -1.133261e+01 1.060000e+01
      vertex -6.884903e+00 -1.325000e+01 1.060000e+01
    endloop
  endfacet
  facet normal 0.000000e+00 6.123234e-17 1.000000e+00
    outer loop
      vertex -4.219713e+00 -9.275000e+00 1.060000e+01
      vertex -6.884903e+00 -1.325000e+01 1.060000e+01
      vertex -5.621499e+00 -1.489650e+01 1.060000e+01
    endloop
  endfacet
  facet normal 0.000000e+00 6.123234e-17 1.000000e+00
    outer loop
      vertex -4.219713e+00 -1.031507e+01 1.060000e+01
      vertex -5.621499e+00 -1.489650e+01 1.060000e+01
      vertex -3.975000e+00 -1.615990e+01 1.060000e+01
    endloop
  endfacet
  facet normal 0.000000e+00 6.123234e-17 1.000000e+00
    outer loop
      vertex -3.253028e+00 -1.215693e+01 1.060000e+01
      vertex -2.057612e+00 -1.695412e+01 1.060000e+01
      vertex 0.000000e+00 -1.722500e+01 1.060000e+01
    endloop
  endfacet
  facet normal 0.000000e+00 6.123234e-17 1.000000e+00
    outer loop
      vertex -1.541113e+00 -1.333858e+01 1.060000e+01
      vertex 0.000000e+00 -1.722500e+01 1.060000e+01
      vertex 2.057612e+00 -1.695412e+01 1.060000e+01
    endloop
  endfacet
  facet normal 0.000000e+00 6.123234e-17 1.000000e+00
    outer loop
      vertex 5.238520e-01 -1.358932e+01 1.060000e+01
      vertex 2.057612e+00 -1.695412e+01 1.060000e+01
      vertex 3.975000e+00 -1.615990e+01 1.060000e+01
    endloop
  endfacet
  facet normal 0.000000e+00 6.123234e-17 1.000000e+00
    outer loop
      vertex 2.468809e+00 -1.285168e+01 1.060000e+01
      vertex 5.621499e+00 -1.489650e+01 1.060000e+01
      vertex 6.884903e+00 -1.325000e+01 1.060000e+01
    endloop
  endfacet
  facet normal 0.000000e+00 6.123234e-17 1.000000e+00
    outer loop
      vertex 3.848192e+00 -1.129468e+01 1.060000e+01
      vertex 6.884903e+00 -1.325000e+01 1.060000e+01
      vertex 7.679111e+00 -1.133261e+01 1.060000e+01
    endloop
  endfacet
  facet normal 0.000000e+00 6.123234e-17 1.000000e+00
    outer loop
      vertex 4.346000e+00 -9.275000e+00 1.060000e+01
      vertex 7.679111e+00 -1.133261e+01 1.060000e+01
      vertex 7.950000e+00 -9.275000e+00 1.060000e+01
    endloop
  endfacet
  facet normal 0.000000e+00 6.123234e-17 1.000000e+00
    outer loop
      vertex 5.238520e-01 -1.358932e+01 1.060000e+01
      vertex 5.621499e+00 -1.489650e+01 1.060000e+01
      vertex 2.468809e+00 -1.285168e+01 1.060000e+01
    endloop
  endfacet
  facet normal 0.000000e+00 6.123234e-17 1.000000e+00
    outer loop
      vertex 2.468809e+00 -1.285168e+01 1.060000e+01
      vertex 6.884903e+00 -1.325000e+01 1.060000e+01
      vertex 3.848192e+00 -1.129468e+01 1.060000e+01
    endloop
  endfacet
  facet normal 0.000000e+00 6.123234e-17 1.000000e+00
    outer loop
      vertex 5.238520e-01 -1.358932e+01 1.060000e+01
      vertex 3.975000e+00 -1.615990e+01 1.060000e+01
      vertex 5.621499e+00 -1.489650e+01 1.060000e+01
    endloop
  endfacet
  facet normal 0.000000e+00 6.123234e-17 1.000000e+00
    outer loop
      vertex -1.541113e+00 -1.333858e+01 1.060000e+01
      vertex 2.057612e+00 -1.695412e+01 1.060000e+01
      vertex 5.238520e-01 -1.358932e+01 1.060000e+01
    endloop
  endfacet
  facet normal 0.000000e+00 6.123234e-17 1.000000e+00
    outer loop
      vertex -4.219713e+00 -1.031507e+01 1.060000e+01
      vertex -2.057612e+00 -1.695412e+01 1.060000e+01
      vertex -3.253028e+00 -1.215693e+01 1.060000e+01
    endloop
  endfacet
  facet normal 0.000000e+00 6.123234e-17 1.000000e+00
    outer loop
      vertex -3.253028e+00 -1.215693e+01 1.060000e+01
      vertex 0.000000e+00 -1.722500e+01 1.060000e+01
      vertex -1.541113e+00 -1.333858e+01 1.060000e+01
    endloop
  endfacet
  facet normal 0.000000e+00 6.123234e-17 1.000000e+00
    outer loop
      vertex -4.219713e+00 -1.031507e+01 1.060000e+01
      vertex -3.975000e+00 -1.615990e+01 1.060000e+01
      vertex -2.057612e+00 -1.695412e+01 1.060000e+01
    endloop
  endfacet
  facet normal 0.000000e+00 6.123234e-17 1.000000e+00
    outer loop
      vertex -4.219713e+00 -9.275000e+00 1.060000e+01
      vertex -5.621499e+00 -1.489650e+01 1.060000e+01
      vertex -4.219713e+00 -1.031507e+01 1.060000e+01
    endloop
  endfacet
  facet normal 0.000000e+00 6.123234e-17 1.000000e+00
    outer loop
      vertex 3.848192e+00 -1.129468e+01 1.060000e+01
      vertex 7.679111e+00 -1.133261e+01 1.060000e+01
      vertex 4.346000e+00 -9.275000e+00 1.060000e+01
    endloop
  endfacet
  facet normal -9.709417e-01 2.393159e-01 -1.465387e-17
    outer loop
      vertex 4.346000e+00 -9.275000e+00 1.060000e+01
      vertex 4.346000e+00 -9.275000e+00 1.882938e-15
      vertex 3.848192e+00 -1.129468e+01 1.060000e+01
    endloop
  endfacet
  facet normal -9.709417e-01 2.393159e-01 -1.465387e-17
    outer loop
      vertex 3.848192e+00 -1.129468e+01 1.060000e+01
      vertex 4.346000e+00 -9.275000e+00 1.882938e-15
      vertex 3.848192e+00 -1.129468e+01 1.882938e-15
    endloop
  endfacet
  facet normal -9.709417e-01 -2.393159e-01 1.465387e-17
    outer loop
      vertex 4.346000e+00 -9.275000e+00 1.060000e+01
      vertex 3.848192e+00 -7.255313e+00 1.060000e+01
      vertex 4.346000e+00 -9.275000e+00 1.882938e-15
    endloop
  endfacet
  facet normal -9.709417e-01 -2.393159e-01 1.465387e-17
    outer loop
      vertex 4.346000e+00 -9.275000e+00 1.882938e-15
      vertex 3.848192e+00 -7.255313e+00 1.060000e+01
      vertex 3.848192e+00 -7.255313e+00 1.882938e-15
    endloop
  endfacet
  facet normal -7.485107e-01 -6.631227e-01 4.060455e-17
    outer loop
      vertex 3.848192e+00 -7.255313e+00 1.060000e+01
      vertex 2.468809e+00 -5.698313e+00 1.060000e+01
      vertex 3.848192e+00 -7.255313e+00 1.882938e-15
    endloop
  endfacet
  facet normal -7.485107e-01 -6.631227e-01 4.060455e-17
    outer loop
      vertex 3.848192e+00 -7.255313e+00 1.882938e-15
      vertex 2.468809e+00 -5.698313e+00 1.060000e+01
      vertex 2.468809e+00 -5.698313e+00 9.414691e-16
    endloop
  endfacet
  facet normal -3.546051e-01 -9.350162e-01 5.725323e-17
    outer loop
      vertex 2.468809e+00 -5.698313e+00 9.414691e-16
      vertex 2.468809e+00 -5.698313e+00 1.060000e+01
      vertex 5.238520e-01 -4.960687e+00 1.060000e+01
    endloop
  endfacet
  facet normal -3.546051e-01 -9.350162e-01 5.725323e-17
    outer loop
      vertex 5.238520e-01 -4.960687e+00 9.414691e-16
      vertex 2.468809e+00 -5.698313e+00 9.414691e-16
      vertex 5.238520e-01 -4.960687e+00 1.060000e+01
    endloop
  endfacet
  facet normal 1.205360e-01 -9.927089e-01 6.078590e-17
    outer loop
      vertex 5.238520e-01 -4.960687e+00 9.414691e-16
      vertex 5.238520e-01 -4.960687e+00 1.060000e+01
      vertex -1.541113e+00 -5.211419e+00 1.060000e+01
    endloop
  endfacet
  facet normal 1.205360e-01 -9.927089e-01 6.078590e-17
    outer loop
      vertex -1.541113e+00 -5.211419e+00 9.414691e-16
      vertex 5.238520e-01 -4.960687e+00 9.414691e-16
      vertex -1.541113e+00 -5.211419e+00 1.060000e+01
    endloop
  endfacet
  facet normal 5.680649e-01 -8.229837e-01 5.039322e-17
    outer loop
      vertex -1.541113e+00 -5.211419e+00 9.414691e-16
      vertex -1.541113e+00 -5.211419e+00 1.060000e+01
      vertex -3.253028e+00 -6.393069e+00 1.060000e+01
    endloop
  endfacet
  facet normal 5.680649e-01 -8.229837e-01 5.039322e-17
    outer loop
      vertex -3.253028e+00 -6.393069e+00 1.882938e-15
      vertex -1.541113e+00 -5.211419e+00 9.414691e-16
      vertex -3.253028e+00 -6.393069e+00 1.060000e+01
    endloop
  endfacet
  facet normal 8.854560e-01 -4.647231e-01 2.845608e-17
    outer loop
      vertex -3.253028e+00 -6.393069e+00 1.882938e-15
      vertex -3.253028e+00 -6.393069e+00 1.060000e+01
      vertex -4.219713e+00 -8.234934e+00 1.060000e+01
    endloop
  endfacet
  facet normal 8.854560e-01 -4.647231e-01 2.845608e-17
    outer loop
      vertex -4.219713e+00 -8.234934e+00 1.882938e-15
      vertex -3.253028e+00 -6.393069e+00 1.882938e-15
      vertex -4.219713e+00 -8.234934e+00 1.060000e+01
    endloop
  endfacet
  facet normal 1.000000e+00 0.000000e+00 0.000000e+00
    outer loop
      vertex -4.219713e+00 -8.234934e+00 1.060000e+01
      vertex -4.219713e+00 -9.275000e+00 1.060000e+01
      vertex -4.219713e+00 -1.031507e+01 1.882938e-15
    endloop
  endfacet
  facet normal 1.000000e+00 0.000000e+00 0.000000e+00
    outer loop
      vertex -4.219713e+00 -1.031507e+01 1.882938e-15
      vertex -4.219713e+00 -9.275000e+00 1.060000e+01
      vertex -4.219713e+00 -1.031507e+01 1.060000e+01
    endloop
  endfacet
  facet normal 1.000000e+00 0.000000e+00 0.000000e+00
    outer loop
      vertex -4.219713e+00 -8.234934e+00 1.060000e+01
      vertex -4.219713e+00 -1.031507e+01 1.882938e-15
      vertex -4.219713e+00 -8.234934e+00 1.882938e-15
    endloop
  endfacet
  facet normal -9.914449e-01 -1.305260e-01 7.992412e-18
    outer loop
      vertex -7.950000e+00 -9.275000e+00 1.882938e-15
      vertex -7.679111e+00 -1.133261e+01 1.882938e-15
      vertex -7.950000e+00 -9.275000e+00 5.300000e+00
    endloop
  endfacet
  facet normal -9.914449e-01 -1.305260e-01 7.992412e-18
    outer loop
      vertex -7.950000e+00 -9.275000e+00 5.300000e+00
      vertex -7.679111e+00 -1.133261e+01 1.882938e-15
      vertex -7.679111e+00 -1.133261e+01 1.060000e+01
    endloop
  endfacet
  facet normal -9.914449e-01 -1.305260e-01 7.992412e-18
    outer loop
      vertex -7.950000e+00 -9.275000e+00 5.300000e+00
      vertex -7.679111e+00 -1.133261e+01 1.060000e+01
      vertex -7.950000e+00 -9.275000e+00 1.060000e+01
    endloop
  endfacet
  facet normal 0.000000e+00 -6.123234e-17 -1.000000e+00
    outer loop
      vertex -7.679111e+00 -1.133261e+01 1.882938e-15
      vertex -7.950000e+00 -9.275000e+00 1.882938e-15
      vertex -7.679111e+00 -7.217388e+00 1.882938e-15
    endloop
  endfacet
  facet normal 0.000000e+00 -6.123234e-17 -1.000000e+00
    outer loop
      vertex -5.621499e+00 -3.653501e+00 9.414691e-16
      vertex -7.679111e+00 -1.133261e+01 1.882938e-15
      vertex -6.884903e+00 -5.300000e+00 9.414691e-16
    endloop
  endfacet
  facet normal 0.000000e+00 -6.123234e-17 -1.000000e+00
    outer loop
      vertex -6.884903e+00 -5.300000e+00 9.414691e-16
      vertex -7.679111e+00 -1.133261e+01 1.882938e-15
      vertex -7.679111e+00 -7.217388e+00 1.882938e-15
    endloop
  endfacet
  facet normal 0.000000e+00 -6.123234e-17 -1.000000e+00
    outer loop
      vertex -3.975000e+00 -2.390096e+00 9.414691e-16
      vertex -7.679111e+00 -1.133261e+01 1.882938e-15
      vertex -5.621499e+00 -3.653501e+00 9.414691e-16
    endloop
  endfacet
  facet normal 0.000000e+00 -6.123234e-17 -1.000000e+00
    outer loop
      vertex -2.057612e+00 -1.595889e+00 9.414691e-16
      vertex -7.679111e+00 -1.133261e+01 1.882938e-15
      vertex -3.975000e+00 -2.390096e+00 9.414691e-16
    endloop
  endfacet
  facet normal 0.000000e+00 -6.123234e-17 -1.000000e+00
    outer loop
      vertex 0.000000e+00 -1.325000e+00 9.414691e-16
      vertex -7.679111e+00 -1.133261e+01 1.882938e-15
      vertex -2.057612e+00 -1.595889e+00 9.414691e-16
    endloop
  endfacet
  facet normal -0.000000e+00 -6.123234e-17 -1.000000e+00
    outer loop
      vertex -3.253028e+00 -6.393069e+00 1.882938e-15
      vertex -7.679111e+00 -1.133261e+01 1.882938e-15
      vertex 0.000000e+00 -1.325000e+00 9.414691e-16
    endloop
  endfacet
  facet normal 0.000000e+00 -6.123234e-17 -1.000000e+00
    outer loop
      vertex 2.468809e+00 -5.698313e+00 9.414691e-16
      vertex 3.975000e+00 -2.390096e+00 9.414691e-16
      vertex 5.621499e+00 -3.653501e+00 9.414691e-16
    endloop
  endfacet
  facet normal 0.000000e+00 -6.123234e-17 -1.000000e+00
    outer loop
      vertex 3.848192e+00 -1.129468e+01 1.882938e-15
      vertex 4.346000e+00 -9.275000e+00 1.882938e-15
      vertex 7.950000e+00 -9.275000e+00 1.882938e-15
    endloop
  endfacet
  facet normal 0.000000e+00 -6.123234e-17 -1.000000e+00
    outer loop
      vertex 2.468809e+00 -1.285168e+01 1.882938e-15
      vertex 7.679111e+00 -1.133261e+01 1.882938e-15
      vertex 6.884903e+00 -1.325000e+01 1.882938e-15
    endloop
  endfacet
  facet normal 0.000000e+00 -6.123234e-17 -1.000000e+00
    outer loop
      vertex 5.238520e-01 -1.358932e+01 1.882938e-15
      vertex 2.468809e+00 -1.285168e+01 1.882938e-15
      vertex 5.621499e+00 -1.489650e+01 1.882938e-15
    endloop
  endfacet
  facet normal 0.000000e+00 -6.123234e-17 -1.000000e+00
    outer loop
      vertex 2.057612e+00 -1.695412e+01 1.882938e-15
      vertex -7.679111e+00 -1.133261e+01 1.882938e-15
      vertex 3.975000e+00 -1.615990e+01 1.882938e-15
    endloop
  endfacet
  facet normal 0.000000e+00 -6.123234e-17 -1.000000e+00
    outer loop
      vertex 0.000000e+00 -1.722500e+01 1.882938e-15
      vertex -7.679111e+00 -1.133261e+01 1.882938e-15
      vertex 2.057612e+00 -1.695412e+01 1.882938e-15
    endloop
  endfacet
  facet normal 0.000000e+00 -6.123234e-17 -1.000000e+00
    outer loop
      vertex -2.057612e+00 -1.695412e+01 1.882938e-15
      vertex -7.679111e+00 -1.133261e+01 1.882938e-15
      vertex 0.000000e+00 -1.722500e+01 1.882938e-15
    endloop
  endfacet
  facet normal 0.000000e+00 -6.123234e-17 -1.000000e+00
    outer loop
      vertex -3.975000e+00 -1.615990e+01 1.882938e-15
      vertex -7.679111e+00 -1.133261e+01 1.882938e-15
      vertex -2.057612e+00 -1.695412e+01 1.882938e-15
    endloop
  endfacet
  facet normal 0.000000e+00 -6.123234e-17 -1.000000e+00
    outer loop
      vertex -5.621499e+00 -1.489650e+01 1.882938e-15
      vertex -7.679111e+00 -1.133261e+01 1.882938e-15
      vertex -3.975000e+00 -1.615990e+01 1.882938e-15
    endloop
  endfacet
  facet normal 0.000000e+00 -6.123234e-17 -1.000000e+00
    outer loop
      vertex -6.884903e+00 -1.325000e+01 1.882938e-15
      vertex -7.679111e+00 -1.133261e+01 1.882938e-15
      vertex -5.621499e+00 -1.489650e+01 1.882938e-15
    endloop
  endfacet
  facet normal 0.000000e+00 -6.123234e-17 -1.000000e+00
    outer loop
      vertex 3.848192e+00 -7.255313e+00 1.882938e-15
      vertex 2.468809e+00 -5.698313e+00 9.414691e-16
      vertex 6.884903e+00 -5.300000e+00 9.414691e-16
    endloop
  endfacet
  facet normal 0.000000e+00 -6.123234e-17 -1.000000e+00
    outer loop
      vertex 2.468809e+00 -5.698313e+00 9.414691e-16
      vertex 5.238520e-01 -4.960687e+00 9.414691e-16
      vertex 3.975000e+00 -2.390096e+00 9.414691e-16
    endloop
  endfacet
  facet normal 0.000000e+00 -6.123234e-17 -1.000000e+00
    outer loop
      vertex 4.346000e+00 -9.275000e+00 1.882938e-15
      vertex 3.848192e+00 -7.255313e+00 1.882938e-15
      vertex 7.679111e+00 -7.217388e+00 1.882938e-15
    endloop
  endfacet
  facet normal 0.000000e+00 -6.123234e-17 -1.000000e+00
    outer loop
      vertex 2.468809e+00 -1.285168e+01 1.882938e-15
      vertex 3.848192e+00 -1.129468e+01 1.882938e-15
      vertex 7.679111e+00 -1.133261e+01 1.882938e-15
    endloop
  endfacet
  facet normal 0.000000e+00 -6.123234e-17 -1.000000e+00
    outer loop
      vertex 3.975000e+00 -1.615990e+01 1.882938e-15
      vertex -1.541113e+00 -1.333858e+01 1.882938e-15
      vertex 5.621499e+00 -1.489650e+01 1.882938e-15
    endloop
  endfacet
  facet normal 0.000000e+00 -6.123234e-17 -1.000000e+00
    outer loop
      vertex 3.975000e+00 -1.615990e+01 1.882938e-15
      vertex -7.679111e+00 -1.133261e+01 1.882938e-15
      vertex -1.541113e+00 -1.333858e+01 1.882938e-15
    endloop
  endfacet
  facet normal 0.000000e+00 -6.123234e-17 -1.000000e+00
    outer loop
      vertex -1.541113e+00 -1.333858e+01 1.882938e-15
      vertex 5.238520e-01 -1.358932e+01 1.882938e-15
      vertex 5.621499e+00 -1.489650e+01 1.882938e-15
    endloop
  endfacet
  facet normal 0.000000e+00 -6.123234e-17 -1.000000e+00
    outer loop
      vertex 5.621499e+00 -1.489650e+01 1.882938e-15
      vertex 2.468809e+00 -1.285168e+01 1.882938e-15
      vertex 6.884903e+00 -1.325000e+01 1.882938e-15
    endloop
  endfacet
  facet normal 0.000000e+00 -6.123234e-17 -1.000000e+00
    outer loop
      vertex 7.679111e+00 -1.133261e+01 1.882938e-15
      vertex 3.848192e+00 -1.129468e+01 1.882938e-15
      vertex 7.950000e+00 -9.275000e+00 1.882938e-15
    endloop
  endfacet
  facet normal 0.000000e+00 -6.123234e-17 -1.000000e+00
    outer loop
      vertex -3.253028e+00 -1.215693e+01 1.882938e-15
      vertex -1.541113e+00 -1.333858e+01 1.882938e-15
      vertex -7.679111e+00 -1.133261e+01 1.882938e-15
    endloop
  endfacet
  facet normal 0.000000e+00 -6.123234e-17 -1.000000e+00
    outer loop
      vertex 7.950000e+00 -9.275000e+00 1.882938e-15
      vertex 4.346000e+00 -9.275000e+00 1.882938e-15
      vertex 7.679111e+00 -7.217388e+00 1.882938e-15
    endloop
  endfacet
  facet normal 0.000000e+00 -6.123234e-17 -1.000000e+00
    outer loop
      vertex 7.679111e+00 -7.217388e+00 1.882938e-15
      vertex 3.848192e+00 -7.255313e+00 1.882938e-15
      vertex 6.884903e+00 -5.300000e+00 9.414691e-16
    endloop
  endfacet
  facet normal 0.000000e+00 -6.123234e-17 -1.000000e+00
    outer loop
      vertex 6.884903e+00 -5.300000e+00 9.414691e-16
      vertex 2.468809e+00 -5.698313e+00 9.414691e-16
      vertex 5.621499e+00 -3.653501e+00 9.414691e-16
    endloop
  endfacet
  facet normal 0.000000e+00 -6.123234e-17 -1.000000e+00
    outer loop
      vertex 5.238520e-01 -4.960687e+00 9.414691e-16
      vertex -1.541113e+00 -5.211419e+00 9.414691e-16
      vertex 2.057612e+00 -1.595889e+00 9.414691e-16
    endloop
  endfacet
  facet normal 0.000000e+00 -6.123234e-17 -1.000000e+00
    outer loop
      vertex 2.057612e+00 -1.595889e+00 9.414691e-16
      vertex -3.253028e+00 -6.393069e+00 1.882938e-15
      vertex 0.000000e+00 -1.325000e+00 9.414691e-16
    endloop
  endfacet
  facet normal 0.000000e+00 -6.123234e-17 -1.000000e+00
    outer loop
      vertex 5.238520e-01 -4.960687e+00 9.414691e-16
      vertex 2.057612e+00 -1.595889e+00 9.414691e-16
      vertex 3.975000e+00 -2.390096e+00 9.414691e-16
    endloop
  endfacet
  facet normal 0.000000e+00 -6.123234e-17 -1.000000e+00
    outer loop
      vertex -1.541113e+00 -5.211419e+00 9.414691e-16
      vertex -3.253028e+00 -6.393069e+00 1.882938e-15
      vertex 2.057612e+00 -1.595889e+00 9.414691e-16
    endloop
  endfacet
  facet normal -0.000000e+00 -6.123234e-17 -1.000000e+00
    outer loop
      vertex -3.253028e+00 -6.393069e+00 1.882938e-15
      vertex -4.219713e+00 -8.234934e+00 1.882938e-15
      vertex -7.679111e+00 -1.133261e+01 1.882938e-15
    endloop
  endfacet
  facet normal 0.000000e+00 -6.123234e-17 -1.000000e+00
    outer loop
      vertex -4.219713e+00 -8.234934e+00 1.882938e-15
      vertex -4.219713e+00 -1.031507e+01 1.882938e-15
      vertex -7.679111e+00 -1.133261e+01 1.882938e-15
    endloop
  endfacet
  facet normal 0.000000e+00 -6.123234e-17 -1.000000e+00
    outer loop
      vertex -4.219713e+00 -1.031507e+01 1.882938e-15
      vertex -3.253028e+00 -1.215693e+01 1.882938e-15
      vertex -7.679111e+00 -1.133261e+01 1.882938e-15
    endloop
  endfacet
  facet normal 9.238797e-01 -3.826829e-01 2.343257e-17
    outer loop
      vertex 6.884903e+00 -1.325000e+01 1.060000e+01
      vertex 6.884903e+00 -1.325000e+01 1.882938e-15
      vertex 7.679111e+00 -1.133261e+01 1.882938e-15
    endloop
  endfacet
  facet normal 9.238797e-01 -3.826829e-01 2.343257e-17
    outer loop
      vertex 7.679111e+00 -1.133261e+01 1.060000e+01
      vertex 6.884903e+00 -1.325000e+01 1.060000e+01
      vertex 7.679111e+00 -1.133261e+01 1.882938e-15
    endloop
  endfacet
  facet normal 8.854560e-01 4.647231e-01 -2.845608e-17
    outer loop
      vertex -4.219713e+00 -1.031507e+01 1.060000e+01
      vertex -3.253028e+00 -1.215693e+01 1.060000e+01
      vertex -3.253028e+00 -1.215693e+01 1.882938e-15
    endloop
  endfacet
  facet normal 8.854560e-01 4.647231e-01 -2.845608e-17
    outer loop
      vertex -4.219713e+00 -1.031507e+01 1.882938e-15
      vertex -4.219713e+00 -1.031507e+01 1.060000e+01
      vertex -3.253028e+00 -1.215693e+01 1.882938e-15
    endloop
  endfacet
  facet normal 5.680649e-01 8.229837e-01 -5.039322e-17
    outer loop
      vertex -1.541113e+00 -1.333858e+01 1.060000e+01
      vertex -1.541113e+00 -1.333858e+01 1.882938e-15
      vertex -3.253028e+00 -1.215693e+01 1.060000e+01
    endloop
  endfacet
  facet normal 5.680649e-01 8.229837e-01 -5.039322e-17
    outer loop
      vertex -3.253028e+00 -1.215693e+01 1.060000e+01
      vertex -1.541113e+00 -1.333858e+01 1.882938e-15
      vertex -3.253028e+00 -1.215693e+01 1.882938e-15
    endloop
  endfacet
  facet normal 1.205360e-01 9.927089e-01 -6.078590e-17
    outer loop
      vertex 5.238520e-01 -1.358932e+01 1.060000e+01
      vertex 5.238520e-01 -1.358932e+01 1.882938e-15
      vertex -1.541113e+00 -1.333858e+01 1.060000e+01
    endloop
  endfacet
  facet normal 1.205360e-01 9.927089e-01 -6.078590e-17
    outer loop
      vertex -1.541113e+00 -1.333858e+01 1.060000e+01
      vertex 5.238520e-01 -1.358932e+01 1.882938e-15
      vertex -1.541113e+00 -1.333858e+01 1.882938e-15
    endloop
  endfacet
  facet normal -3.546051e-01 9.350162e-01 -5.725323e-17
    outer loop
      vertex 2.468809e+00 -1.285168e+01 1.060000e+01
      vertex 2.468809e+00 -1.285168e+01 1.882938e-15
      vertex 5.238520e-01 -1.358932e+01 1.060000e+01
    endloop
  endfacet
  facet normal -3.546051e-01 9.350162e-01 -5.725323e-17
    outer loop
      vertex 5.238520e-01 -1.358932e+01 1.060000e+01
      vertex 2.468809e+00 -1.285168e+01 1.882938e-15
      vertex 5.238520e-01 -1.358932e+01 1.882938e-15
    endloop
  endfacet
  facet normal -7.485107e-01 6.631227e-01 -4.060455e-17
    outer loop
      vertex 3.848192e+00 -1.129468e+01 1.060000e+01
      vertex 3.848192e+00 -1.129468e+01 1.882938e-15
      vertex 2.468809e+00 -1.285168e+01 1.060000e+01
    endloop
  endfacet
  facet normal -7.485107e-01 6.631227e-01 -4.060455e-17
    outer loop
      vertex 2.468809e+00 -1.285168e+01 1.060000e+01
      vertex 3.848192e+00 -1.129468e+01 1.882938e-15
      vertex 2.468809e+00 -1.285168e+01 1.882938e-15
    endloop
  endfacet
  facet normal 7.933529e-01 -6.087620e-01 3.727592e-17
    outer loop
      vertex 5.621499e+00 -1.489650e+01 1.060000e+01
      vertex 5.621499e+00 -1.489650e+01 1.882938e-15
      vertex 6.884903e+00 -1.325000e+01 1.882938e-15
    endloop
  endfacet
  facet normal 7.933529e-01 -6.087620e-01 3.727592e-17
    outer loop
      vertex 6.884903e+00 -1.325000e+01 1.060000e+01
      vertex 5.621499e+00 -1.489650e+01 1.060000e+01
      vertex 6.884903e+00 -1.325000e+01 1.882938e-15
    endloop
  endfacet
  facet normal 6.087620e-01 -7.933529e-01 4.857885e-17
    outer loop
      vertex 3.975000e+00 -1.615990e+01 1.060000e+01
      vertex 3.975000e+00 -1.615990e+01 1.882938e-15
      vertex 5.621499e+00 -1.489650e+01 1.882938e-15
    endloop
  endfacet
  facet normal 6.087620e-01 -7.933529e-01 4.857885e-17
    outer loop
      vertex 5.621499e+00 -1.489650e+01 1.060000e+01
      vertex 3.975000e+00 -1.615990e+01 1.060000e+01
      vertex 5.621499e+00 -1.489650e+01 1.882938e-15
    endloop
  endfacet
  facet normal 3.826829e-01 -9.238797e-01 5.657132e-17
    outer loop
      vertex 2.057612e+00 -1.695412e+01 1.060000e+01
      vertex 2.057612e+00 -1.695412e+01 1.882938e-15
      vertex 3.975000e+00 -1.615990e+01 1.882938e-15
    endloop
  endfacet
  facet normal 3.826829e-01 -9.238797e-01 5.657132e-17
    outer loop
      vertex 3.975000e+00 -1.615990e+01 1.060000e+01
      vertex 2.057612e+00 -1.695412e+01 1.060000e+01
      vertex 3.975000e+00 -1.615990e+01 1.882938e-15
    endloop
  endfacet
  facet normal 1.305260e-01 -9.914449e-01 6.070849e-17
    outer loop
      vertex 0.000000e+00 -1.722500e+01 1.060000e+01
      vertex 0.000000e+00 -1.722500e+01 1.882938e-15
      vertex 2.057612e+00 -1.695412e+01 1.882938e-15
    endloop
  endfacet
  facet normal 1.305260e-01 -9.914449e-01 6.070849e-17
    outer loop
      vertex 2.057612e+00 -1.695412e+01 1.060000e+01
      vertex 0.000000e+00 -1.722500e+01 1.060000e+01
      vertex 2.057612e+00 -1.695412e+01 1.882938e-15
    endloop
  endfacet
  facet normal -1.305260e-01 -9.914449e-01 6.070849e-17
    outer loop
      vertex -2.057612e+00 -1.695412e+01 1.060000e+01
      vertex -2.057612e+00 -1.695412e+01 1.882938e-15
      vertex 0.000000e+00 -1.722500e+01 1.882938e-15
    endloop
  endfacet
  facet normal -1.305260e-01 -9.914449e-01 6.070849e-17
    outer loop
      vertex 0.000000e+00 -1.722500e+01 1.060000e+01
      vertex -2.057612e+00 -1.695412e+01 1.060000e+01
      vertex 0.000000e+00 -1.722500e+01 1.882938e-15
    endloop
  endfacet
  facet normal -3.826829e-01 -9.238797e-01 5.657132e-17
    outer loop
      vertex -3.975000e+00 -1.615990e+01 1.060000e+01
      vertex -3.975000e+00 -1.615990e+01 1.882938e-15
      vertex -2.057612e+00 -1.695412e+01 1.882938e-15
    endloop
  endfacet
  facet normal -3.826829e-01 -9.238797e-01 5.657132e-17
    outer loop
      vertex -2.057612e+00 -1.695412e+01 1.060000e+01
      vertex -3.975000e+00 -1.615990e+01 1.060000e+01
      vertex -2.057612e+00 -1.695412e+01 1.882938e-15
    endloop
  endfacet
  facet normal -6.087620e-01 -7.933529e-01 4.857885e-17
    outer loop
      vertex -5.621499e+00 -1.489650e+01 1.060000e+01
      vertex -5.621499e+00 -1.489650e+01 1.882938e-15
      vertex -3.975000e+00 -1.615990e+01 1.882938e-15
    endloop
  endfacet
  facet normal -6.087620e-01 -7.933529e-01 4.857885e-17
    outer loop
      vertex -3.975000e+00 -1.615990e+01 1.060000e+01
      vertex -5.621499e+00 -1.489650e+01 1.060000e+01
      vertex -3.975000e+00 -1.615990e+01 1.882938e-15
    endloop
  endfacet
  facet normal -7.933529e-01 -6.087620e-01 3.727592e-17
    outer loop
      vertex -6.884903e+00 -1.325000e+01 1.882938e-15
      vertex -5.621499e+00 -1.489650e+01 1.882938e-15
      vertex -6.884903e+00 -1.325000e+01 1.060000e+01
    endloop
  endfacet
  facet normal -7.933529e-01 -6.087620e-01 3.727592e-17
    outer loop
      vertex -6.884903e+00 -1.325000e+01 1.060000e+01
      vertex -5.621499e+00 -1.489650e+01 1.882938e-15
      vertex -5.621499e+00 -1.489650e+01 1.060000e+01
    endloop
  endfacet
  facet normal -9.238797e-01 -3.826829e-01 2.343257e-17
    outer loop
      vertex -7.679111e+00 -1.133261e+01 1.882938e-15
      vertex -6.884903e+00 -1.325000e+01 1.882938e-15
      vertex -7.679111e+00 -1.133261e+01 1.060000e+01
    endloop
  endfacet
  facet normal -9.238797e-01 -3.826829e-01 2.343257e-17
    outer loop
      vertex -7.679111e+00 -1.133261e+01 1.060000e+01
      vertex -6.884903e+00 -1.325000e+01 1.882938e-15
      vertex -6.884903e+00 -1.325000e+01 1.060000e+01
    endloop
  endfacet
endsolid Default
